<?xml version="1.0" encoding="UTF-8"?>
<svg id="Layer_1" data-name="Layer 1" xmlns="http://www.w3.org/2000/svg" viewBox="0 0 600.84 889.98">
  <defs>
    <style>
      .cls-1 {
        fill: #000;
        stroke-width: 0px;
      }
    </style>
  </defs>
  <path class="cls-1" d="M372.51,559.8c.52-.34.97-.63,1.53-1-.25-.56-.44-1.07-.69-1.54-3.9-7.43-7.77-14.88-11.74-22.28-5.33-9.94-11.06-19.64-17.42-28.97-1.89-2.77-3.65-5.63-5.45-8.47-3.03-4.78-6.66-8.99-11.46-12.09-2.48-1.6-4.93-3.25-7.46-4.77-1.55-.93-2.13-2.35-1.74-3.87,1.43-5.65,2.71-11.41,6.57-16.05,1.15-1.38,2.7-2.43,4.08-3.61.54-.46,1.14-.87,1.7-1.31,3.2-2.53,7.31-3.28,11.09-.67,3.12,2.16,5.22,5.13,7.04,8.35.62,1.1,1.14,2.27,1.84,3.35-.18-2.06-1.02-3.91-1.96-5.67-.93-1.75-2-3.48-3.31-4.96-1.34-1.5-3.04-2.68-4.75-4.15,2.26-1.31,4.37-.64,6.31.06,1.96.7,3.76,1.85,5.77,2.64-1.61-1.31-3.21-2.61-4.82-3.92l.12-.56c.89-.11,1.77-.34,2.66-.32,6.38.14,12.02,2.41,17.04,6.24,4.76,3.64,9.67,7.11,13.73,11.58.09.1.25.12.94.43-1.37-2.22-2.39-4.09-3.62-5.8-1.26-1.74-2.62-3.44-4.15-4.94-1.47-1.45-3.16-2.69-4.86-3.88-1.7-1.2-3.96-1.36-5.69-2.53.04-.18.08-.36.12-.55,1.31-.09,2.62-.28,3.92-.27,7.61.09,14.7,1.96,21.03,6.33,4.62,3.19,8.89,6.8,12.79,10.84.54.56,1.03,1.17,1.54,1.75.14-.11.27-.23.41-.34-1.15-1.57-2.26-3.18-3.47-4.7-1.25-1.56-2.51-3.12-3.93-4.53-1.35-1.34-2.84-2.59-4.4-3.69-1.57-1.11-3.32-1.98-4.89-3.22,6.57-.81,12.89.37,19.04,2.17,6.31,1.84,11.38,5.95,16.29,10.23-2.77-3.56-5.45-7.17-9.51-9.47.06-.26.05-.5.15-.68,1.14-2.03,1.17-1.94,3.52-2.61,3.45-.99,6.86-2.11,10.28-3.21.56-.18,1.07-.51,1.52-.99-3.45.92-6.87,1.96-10.35,2.73-9.44,2.09-18.89,1.74-28.31-.22-1.59-.33-3.35-.29-4.59-2.13,11.14-2.45,21.36-6.84,31.08-12.54-.66.26-1.33.51-1.99.78-5.38,2.24-10.66,4.76-16.15,6.67-9.42,3.27-19.19,4.85-29.17,4.99-1.83.02-3.67-.21-5.49-.38-.42-.04-.82-.34-1.61-.69,3.87-2.17,7.53-4.03,10.98-6.21,3.44-2.17,6.67-4.67,9.86-7.34-.43.17-.9.29-1.3.52-2.5,1.43-4.98,2.88-7.47,4.33-6.46,3.76-13.45,6.29-20.47,8.72-1.08.37-2.33,1.11-3.88.03,1.45-1.55,3.42-1.97,4.86-3.12,1.43-1.15,2.98-2.16,4.38-3.34,1.46-1.23,2.81-2.58,4-4.21-.36.18-.73.32-1.06.54-6.84,4.49-14.04,8.27-21.76,11.02-2.54.91-4.96,1.99-7.33,3.35-4.89,2.81-8.53,6.86-11.95,11.15-2.89,3.63-3.76,8.12-4.36,12.55-1.27,9.43-2.24,18.89-3.43,28.33-.57,4.52-1.18,9.07-3.26,13.21-.59,1.18-1.49,2.25-2.42,3.2-.72.74-1.76.84-2.59.04-.81-.78-1.14-1.69.04-3.29.38.8.68,1.42,1.1,2.29.84-.83,1.37-1.35,1.97-1.95-1.63-2.77-1.41-5.77-1.44-8.69-.11-9.99-.31-19.99-.1-29.98.21-10.23-1.14-20.25-3.06-30.24-3.57-18.52-6.96-37.08-9.25-55.82-1.03-8.49-1.81-17.01-2.56-25.53-.21-2.35.11-4.75.2-7.5-1.09-.86-2.31-2.17-1.84-4.87.59,1.02.9,1.59,1.24,2.15.98,1.6,1.62,1.67,3.01.5,8.68-7.31,17.32-14.68,26.09-21.89,3.7-3.04,7.68-5.74,11.55-8.57,1.94-1.42,4.17-1.9,6.53-2.05,7.26-.47,14.36.47,21.37,2.24,7.59,1.92,15.15,3.94,22.72,5.93.52.14,1.02.34,1.59.94-.61.15-1.22.4-1.84.44-3.03.19-6.06.4-9.1.47-11.27.26-22.54.43-33.81.73-3.67.1-7.34.43-10.99.84-3.73.41-7.12,1.83-10.07,4.16-4.74,3.76-4.91,11.26-.42,15.17,1.65,1.44,3.62,2.12,5.73,2.12,4.39-.01,8.33-1.41,11.51-4.54,1.92-1.89,2.14-3.81.75-6.19-.48.59-.93,1.1-1.34,1.64-1.25,1.69-2.7,3.13-4.66,4.02-2.19.99-4.36.83-6.51,0-.64-.25-1.27-.73-1.69-1.27-.99-1.26-.37-2.81,1.22-3.08,1.73-.29,3.34.14,4.75,1.2.63.48,1.21,1.03,1.9,1.61,1.92-.72,3.03-2.28,4.13-3.84.64-.91,1.13-2.13,2.51-1.84,1.46.31,1.88,1.61,2.13,2.9.42,2.22-.36,4.1-1.81,5.72-.58.64-1.31,1.14-2.2,1.89,1.77,1.6,3.29,2.97,4.75,4.29.29-.13.51-.17.52-.24.19-.85.25-2.07,1.29-1.99.77.06,1.62.88,2.17,1.56.47.58.61,1.46.85,2.22.25.81.2,1.86.71,2.41.76.83,1.9,1.32,3.37,2.28-.37-1.16-.61-1.72-.71-2.31-.17-.93-.4-1.89-.34-2.82.08-1.33,1-1.95,2.33-1.74,1.55.24,2.55,1.26,3.35,2.51,1.06,1.66,1.47,3.6,1.45,6.87.69.3,1.44.62,2.52,1.08-.14-.91-.27-1.44-.3-1.97-.11-2.2,1.11-3.07,3.2-2.31,2.21.81,3.69,3.14,3.42,5.48-.07.62-.28,1.23-.47,2.03.68.41,1.4.84,2.11,1.27.5-.71.84-1.71,1.35-1.81.74-.14,1.78.14,2.39.62,1.7,1.35,3.25,2.93,3.49,5.24.12,1.11.81,1.44,1.94,1.98-.27-.81-.48-1.36-.64-1.92-.46-1.62-.19-2.85.82-3.45,1.22-.73,2.37-.26,3.35.46,1.65,1.2,2.79,2.84,3.53,4.74.14.36.25.73.45,1.31.69-.87,1.26-1.62,1.86-2.34.56-.68,1.14-1.33,1.8-2.09-1.12-1.45-2.24-2.87-3.3-4.24-1.15-.24-2.27-.33-3.28-.72-1.41-.55-2.36-1.62-2.63-3.18-.33-1.97.54-2.82,2.53-2.5.23.04.45.1.95.21-.14-.97-.21-1.82-.39-2.65-.36-1.65-.07-3.16.8-4.6.83-1.37,1.63-2.75,2.39-4.15.82-1.51,2.15-2.35,3.7-2.87,1.06-.35,2.16-.56,3.25-.81,2.05-.47,3.46-1.58,3.87-3.71-.07-.18-.1-.35-.19-.47-3.44-4.81-2.62-9.87-.68-14.87,1.71-4.42,6.98-5.38,10.4-2.08.34.33.64.72.97,1.07,2.49,2.64,6.86,3.47,10.15,2.01,1.58-.71,2.29-1.78,2.2-3.55-.21-4.14-2.13-7.28-5.38-9.72-1.28-.96-2.59-1.88-3.75-2.97-6.76-6.36-4.85-17.6,3.63-21.42,1.82-.82,3.71-1.49,5.53-2.31,3.13-1.41,5.73-3.47,7.53-6.45.16-.27.31-.59.55-.78.57-.47,1.2-.89,1.8-1.33.38.57.92,1.08,1.12,1.71.46,1.44,1.31,2.47,2.51,3.39,4.4,3.39,8.21,7.35,11.29,12,1.89,2.85,3.12,5.92,3.66,9.29,1.44,9-.21,17.32-5.44,24.85-.72,1.03-1.74,1.85-2.58,2.79-1.31,1.45-1.44,2.69-.23,4.25.88,1.13,1.97,2.09,3,3.09,1.81,1.76,3.2,3.74,3.74,6.28.47,2.23.28,4.34-.94,6.23-.87,1.35-.77,2.52-.02,3.79,1.16,1.97,2.57,3.69,4.71,4.62,2.71,1.17,4.18,3.34,4.35,6.13.28,4.76.36,9.54.28,14.32-.03,2.23-1.39,4.04-3,5.57-.75.7-1.49,1.41-2.45,2.31,1.02.42,1.86.78,2.71,1.12,2.98,1.23,3.2,1.66,2.28,4.58,2.72.15,5.42.26,8.12.46,5.84.43,11.55,1.6,17.13,3.37.61.19,1.22.4,1.79.68,1.62.8,1.69,1.2.49,3.12,9.21,2.18,18.22,4.69,25.93,10.75-.52.66-.9,1.13-1.3,1.63.15.11.31.31.52.4,6.32,2.52,11.19,7.04,15.97,11.67,2.08,2.02,1.9,2.75-.84,4.25.54.42,1,.84,1.53,1.18,3.58,2.33,6.71,5.16,9.46,8.42,2.27,2.68,2.18,3.24-1.12,4.62.3.53.51,1.13.9,1.55,2.15,2.24,4.32,4.47,6.54,6.65,1.66,1.62,3.55,3.01,5.06,4.75,1.12,1.29,1.91,2.93,2.62,4.51.69,1.55.46,1.67-.98,2.66-2.43,1.67-4.82,3.4-7.14,5.21-.56.44-.8,1.29-1.18,1.95-.35.62-.7,1.24-1.03,1.86-.41.77-.99,1.5-1.18,2.33-.54,2.34-1.92,4.03-3.81,5.33-1.51,1.04-3.07,2.04-4.72,2.81-1.25.58-2.28,1.44-2.67,2.59-.51,1.5-1.6,2.14-2.79,2.75-4.64,2.38-9.46,4.28-14.61,5.25-.52.1-1.02.27-1.53.42.07.23.07.32.12.36.71.56,2.01.55,2,1.79,0,1.34-1.16,1.9-2.16,2.31-3.98,1.65-8.01,3.2-12.03,4.77-1.14.44-2.46.5-2.68,2.23-.06.48-1.21.93-1.93,1.18-4.1,1.42-8.31,2.29-12.67,2.39-3.28.07-6.55.19-9.83.31-.85.03-1.7.16-2.5.24-.04.37-.11.55-.05.67,1.12,2.53.88,3.15-1.73,4.03-4.75,1.58-9.66,2.12-14.64,2.26-.88.02-1.75,0-2.61,0-.35.67-.51,1.49-1.01,1.83-.61.42-1.49.54-2.27.63-4.83.53-9.56-.36-14.29-1.13-.29-.05-.58-.06-1.16-.12.53.62.92,1,1.23,1.45.87,1.25.61,2.34-.89,2.78-1.02.3-2.25.41-3.26.15-4.48-1.16-8.93-2.45-13.38-3.76-2.99-.88-5.94-1.87-8.92-2.79-1.34-.42-3.38.51-4.15,1.68-.29.43-.98.85-1.47.83-.76-.03-1.53-.39-2.27-.7-5.5-2.33-10.28-5.81-14.94-9.48-.67-.53-1.34-1.05-2.25-1.76,0,.73.05,1.11-.01,1.47-.11.65-.12,1.67-.49,1.85-.49.23-1.42-.03-1.94-.4-4.73-3.34-8.95-7.23-12.23-12.06-1.51-2.23-1.68-2.29-4.54-1.71-.42.08-.96-.06-1.35-.27-2.79-1.51-5.38-3.37-6.66-6.33-2.37-5.5-4.64-11.06-6.63-16.7-.78-2.2-.9-4.69-1.01-7.07-.17-3.82-.93-7.45-2.72-10.83-1.11-2.1-2.08-3.12-4.09-4.38-1.18.28-1.95,1.2-2.72,2.1-2.34,2.71-3.9,5.84-4.97,9.23-.74,2.36-1.37,4.76-2.17,7.11-.37,1.11-.24,1.79.84,2.34,9.09,4.58,16.17,11.21,21.31,20.08,3.28,5.66,7.19,10.96,10.67,16.51,6.56,10.43,12.15,21.41,17.79,32.35,1.5,2.91,3.11,5.77,4.63,8.67.43.83.92,1.4,1.92,1.57,2.77.48,4.21,2.28,4.86,4.95.72,2.94,3.55,5.21,6.54,5.49,1.74.17,2.48-.22,3.23-1.83,1.41-3.03,1.24-6.05-.13-9.04-.5-1.09-1.07-2.15-1.48-3.27-2.9-7.8,2.77-15.5,11.05-15,1.28.08,2.55.23,3.82.36,3.27.34,6.36-.17,9.25-1.82.71-.41,1.53-.62,2.4-.96.18.62.4.95.33,1.2-.63,2.18.27,4.05,1.09,5.97,1.75,4.08,2.81,8.34,3.03,12.77.09,1.89-.05,3.88-.56,5.69-2.49,8.82-7.69,15.34-16.48,18.64-2.63.99-3.08,1.96-2.29,4.73.28,1,.66,1.97.96,2.96,1.12,3.69-.15,8.01-3.33,9.66-.99.51-1.22,1.37-1.22,2.41,0,1.97.36,3.86,1.59,5.42,1.83,2.31,1.69,4.72.55,7.21-.43.94-.99,1.82-1.47,2.74-.7,1.33-1.55,2.62-2.03,4.03-1.47,4.35-4.32,6.56-9.98,6.56-2.11,0-3.81.14-5.43,1.73-1.09,1.06-2.69,1.68-4.16,2.25-1.54.59-3.54-.45-3.9-2.23-.41-2-.32-4.1-.37-6.16-.02-.83.16-1.67-.16-2.67-.28.33-.58.64-.84.99-2.33,3.09-4.91,5.85-8.42,7.69-1.15.6-2.05,1.74-3,2.7-2.51,2.54-4.83,2.55-7.05-.3-1.76-2.26-3.25-4.74-4.87-7.11-2.76-4.02-5.48-8.06-8.3-12.03-2.5-3.53-2.62-7.25-1.24-11.18.96-2.75,2.4-5.21,4.66-7.47-3.41-2.13-4.33-5.82-6.06-8.99-2.64-4.85-5.47-9.56-9.14-13.75-3.58-4.09-5.74-9.02-7.57-14.06-.61-1.67-1.38-2.37-3.19-2.45-3.78-.18-6.21-1.57-9.47-5.07-.26,1.02-.52,1.87-.71,2.75-2.18,10.32-4.38,20.64-6.49,30.97-.23,1.11-.15,2.41.18,3.49,1.98,6.41,4.44,12.7,6.05,19.19,3.64,14.66,6.77,29.45,8.42,44.49.75,6.83,1.26,13.69,1.89,20.53.12,1.27.29,2.54.49,3.81.07.46.18,1.12.49,1.3,2.18,1.27,1.67,3.23,1.38,5.1-.44,2.84-.98,5.67-1.45,8.51-.44,2.68-.9,5.36-1.26,8.06-.61,4.57-2.05,8.87-4.15,12.95-.69,1.35-1.35,2.73-2.18,4-3.87,5.94-6.05,12.48-6.98,19.47-.15,1.11-.27,2.23-.26,3.34.17,12.63.23,25.27.6,37.9.19,6.62.79,13.24,1.47,19.84.33,3.17.18,6.2-.56,9.26-1.25,5.23-3.17,10.22-5.38,15.11-.43.96-.78,2.14-2.32,2.26-1.16-2.81-2.14-5.64-2.49-8.67-1.16-10.04-1.19-20.11-.56-30.18.96-15.27.8-30.53.1-45.8-.48-10.46-.72-20.94-1.43-31.39-.54-7.89-1.63-15.74-2.55-23.6-1.01-8.57-2.05-17.14-3.19-25.7-.53-3.96-1.4-7.87-1.96-11.82-.68-4.75-1.13-9.52-1.81-14.27-.89-6.19-3.43-11.67-6.63-17.06-6.63-11.15-13.79-21.93-21.13-32.59-7.57-11-15.2-21.96-23.08-32.74-6.7-9.17-14.01-17.86-21.74-26.2-2.05-2.21-4.77-3.45-7.13-5.2-1.34-.99-2.58-2.12-3.9-3.14-1.01-.77-2-1.63-3.13-2.18-5.02-2.47-10.1-4.8-15.12-7.25-4.05-1.97-7.86-4.31-10.59-8.04-.38-.52-.77-1.03-1.1-1.57-.66-1.08-.64-2.1.35-3.02.51-.47.95-1.02,1.62-1.76-.93-.67-1.63-1.28-2.42-1.73-6.46-3.66-11.98-8.5-17.22-13.68-.9-.89-1.66-1.96-2.32-3.04-.87-1.41-.63-2.05.78-2.92.87-.53,1.74-1.06,2.82-1.71-1.28-1.22-2.34-2.29-3.46-3.3-6.16-5.53-10.84-12.14-14.28-19.65-1.23-2.67-1.81-5.42-1.31-8.39.34-2.01.77-3.91,2.28-5.41.89-.88,1.03-1.95.54-3.1-.35-.81-.66-1.64-1.11-2.39-3.66-6.12-5.11-12.88-5.82-19.86-.18-1.75-.34-3.51-.3-5.26.05-2.32.77-2.92,3.07-3.06,1.66-.1,3.31-.26,5.21-.42.05-1.25.14-2.26.12-3.27-.11-4.72-.27-9.43-.36-14.15-.02-1.03.02-2.09.21-3.1.42-2.25,1.84-3.23,4.13-2.99.4.04.79.13,1.17.23,3.87,1,7.77.74,11.67.3,2.1-.24,3.77-1.16,4.96-2.96,1.64-2.46,3.29-4.92,5.04-7.3,5.3-7.22,10.6-14.43,15.99-21.58,1.58-2.1,3.41-4.03,5.23-5.94,1.68-1.77,2.85-2.05,4.89-.79,1.6.99,3.09,2.28,4.32,3.7,2.37,2.73,4.21,5.82,5.54,9.21.76,1.93,1.54,3.86,2.33,5.78.29.71.65,1.4.95,2.04.38-.07.57-.04.66-.13,2.2-1.98,3.16-1.76,4.63.98,3.37,6.29,6.27,12.77,7.81,19.78.11.52.4.99.56,1.4.25.05.33.1.4.08,3.54-1.04,3.7-.93,5.17,2.42,3.38,7.66,5.14,15.62,4.49,24.03-.03.39,0,.79,0,1.29,2.55.19,3.2,2.13,3.8,4.13,4.93.99,8.93,3.84,13.04,6.5.46-.5.74-.77.98-1.07.64-.8,1.36-.76,2.09-.19.94.74,1.88,1.5,2.74,2.33,3.76,3.61,7.22,7.47,10,11.91.44.71,1.03,1.34,1.55,2,2.83-2.22,2.9-2.29,5.39.23,1.62,1.64,3.03,3.49,4.44,5.33,1.5,1.97,2.83,4.07,4.33,6.04,1.01,1.32,2.17,2.53,3.64,3.2.31-.16.5-.2.58-.31,1.49-2.22,2.09-2.32,4.03-.54,2.28,2.08,3.91,4.63,5.25,7.39.55,1.13,1.19,2.21,1.99,3.7,1.55-1.98,2.92-3.39,2.59-5.87-1.6-12.04-3.12-24.1-4.61-36.16-2.43-19.59-4.57-39.23-7.29-58.78-2.29-16.46-5.21-32.83-7.89-49.24-1.11-6.78-2.29-13.55-3.46-20.33-.93-5.4-2.59-10.56-5.22-15.37-2.87-5.26-5.75-10.52-8.78-15.69-2.85-4.86-6.53-9.07-10.72-12.84-.86-.78-1.56-.98-2.75-.64-2.76.78-5.59,1.27-8.56,1.91,2.45,4.96,1.87,10.62,3.24,15.92.91,3.52,2.14,6.87,4.02,9.95,2.26,3.68,4.67,7.26,6.95,10.92.58.94,1.01,2,1.37,3.05.58,1.65.41,3.26-.34,4.88-.45.98-.89,2.15-.78,3.17.4,3.79-.07,7.46-1.08,11.09-.19.69-.5,1.35-.71,2.04-1.04,3.49-3.06,6.07-6.54,7.46-3.48,1.39-5.6,4.12-6.95,7.53-1.21,3.06-2.56,6.05-4.79,8.53-.75.83-1.53,1.64-2.42,2.31-1.5,1.13-3.14,1.41-4.97.66-2.22-.91-3.04-.86-4.21,1.2-1.86,3.26-6.49,3.44-9.21,1.09-1.69-1.46-3.39-2.93-5.04-4.43-1.4-1.27-1.37-1.28-3.18-.42-.34.16-.78.29-1.14.22-1.08-.19-2.39-.18-3.18-.79-3.65-2.82-7.72-2.09-11.74-1.62-2.41.29-4.06,2.12-5.88,3.54-.94.73-1.86,1.51-2.82,2.21-1.39,1.02-2.95,1.21-4.56.68-6.96-2.28-12.84-6.05-16.92-12.3-1.02-1.57-1.67-3.27-1.72-5.17-.04-1.49-.62-2.55-2.11-3.14-2.84-1.11-4.59-3.71-3.26-6.92.12-.28.11-.62.16-.93-.17-.21-.3-.42-.47-.57-3.38-2.75-3.94-5.99-1.76-9.73.36-.62.46-1.47.44-2.2-.05-1.83-.35-3.66-.36-5.49-.02-5.2,2.48-9.06,6.84-11.61,2.6-1.53,5.4-2.83,8.26-3.78,1.97-.65,4.2-.51,6.29-.72-.25-.22-.67-.63-1.14-.98-7.93-5.9-6.19-14.88-1.9-19.83.57-.66,1.18-1.32,1.87-1.86,2.07-1.59,3.63-3.57,4.89-6.04-.61.13-1.12.23-1.61.36-5.37,1.41-10.56-.78-13.2-5.69-1.31-2.42-2.07-5-1.83-7.83.37-4.46.32-8.99,1.08-13.37,2.23-12.82,9.89-20.8,22.51-23.9,2.38-.58,4.88-.8,7.34-.89,3.5-.12,6.5,1.3,8.48,4.16,2.74,3.97,6.3,6.97,10.21,9.66,3.74,2.58,6.75,5.86,8.74,9.81,2.46.36,4.74.68,7.01,1.04,3.52.56,6.74,1.94,9.81,3.72,4.51,2.62,8.67,5.72,12.56,9.2,5.31,4.75,10.45,9.67,14.9,15.26.63.79,1.3,1.56,2.27,2.72.38-2.21.74-3.91.97-5.61,1.53-11.82,2.37-23.7,3.14-35.59.5-7.8,2.01-15.52,3.04-23.29,1.27-9.5,4.17-18.55,7.86-27.34,1.26-3,2.87-5.88,4.54-8.69,1.57-2.64,3.87-4.63,6.61-6.16-.23-.68-.42-1.19-.57-1.72-1.53-5.5,1.27-10.77,6.68-12.62,4.33-1.48,4.28-1.48,3.91-5.95-.18-2.22-.25-4.47-.14-6.7.14-2.88,1.56-5.14,3.88-6.86,6.45-4.78,17.51-3.73,21.93,3.46.67,1.09,1.39,2.16,2.2,3.14.6.73,1.29,1.44,2.08,1.94,2.03,1.28,4.25.87,5.78-.98.86-1.05,1.59-2.21,2.5-3.21,1.26-1.39,2.43-1.32,3.6.14.39.49.71,1.08.88,1.68,1.36,4.86,1.11,9.65-.79,14.32-.84,2.05-2.25,3.65-4.07,4.91-.77.53-1.45,1.19-2.16,1.78.24.3.31.48.43.51,3.79,1.02,4.88,3.83,5.29,7.39,1.21,10.51-2.51,19.42-8.61,27.63-.14.19-.25.4-.41.67,3.43,5.41,3.53,11.26,2.13,17.29-.72,3.09-2.41,5.58-4.87,7.5-2.28,1.78-4.82,2.53-7.84,2.07-5.16-.79-9.3-3.19-12.77-6.97-4.18-4.54-6.33-10.1-8.14-15.86-1.07-3.43-2.2-6.85-3.38-10.24-.22-.63-.8-1.13-1.23-1.68-1.02-1.32-2.21-2.55-3.04-3.98-1.5-2.57-1.35-5.31-.41-8.27-.57.33-1.2.6-1.71,1.01-2.33,1.87-4.24,4.08-5.68,6.73-3.28,6.04-5.05,12.58-6.58,19.22-1.59,6.89-2.03,13.91-2.43,20.94-.23,3.9-.39,7.81-.58,11.72,2.9-.4,3.81-1.35,3.77-3.99-.03-2.33.09-4.62,1.01-6.83.8-1.94,2.03-3.41,3.88-4.39,4.66-2.46,9.51-2.63,14.39-.93,1.3.45,2.54,1.39,3.51,2.4,1.25,1.31,2.24,2.88,3.26,4.39.83,1.22.7,2.61.28,3.94-1.37,4.39-3.75,8.15-7.4,10.96-2.92,2.25-6.4,2.78-9.99,2.54-1.71-.11-3.2-.87-4.53-2-.5-.43-1.32-.92-1.85-.79-1.69.42-3.36,1.01-4.93,1.77-.5.24-.8,1.15-.96,1.82-.86,3.65-1.79,7.29-2.44,10.97-1.05,5.9-1.99,11.82-2.8,17.75-.31,2.28-.23,4.63-.18,6.95.16,7,2.86,13.04,7.17,18.43.55.68,1.2,1.28,1.84,1.89.28.27.63.46.95.68,1.32-.37,1.71-1.49,2.24-2.43,5.3-9.4,10.57-18.82,15.84-28.23.35-.63.64-1.29,1.04-1.89,1.25-1.9,1.98-3.94,2.23-6.23.47-4.24,2.48-7.9,4.86-11.35,3.12-4.51,6.89-8.4,11.29-11.68,1.41-1.05,2.88-2.07,4.08-3.33,1.18-1.26,2.15-2.75,3.03-4.25.84-1.42,1.5-1.91,3.07-1.36,1.35.47,2.69,1.06,3.88,1.84,5.36,3.52,10.99,6.52,16.84,9.14,1.31.59,2.52,1.38,3.76,2.1.34.2.85.39.95.69.66,2.12,2.68,2.26,4.26,3,3.57,1.67,6.93,3.65,9.92,6.23,1.24,1.07,2.37,2.24,1.3,4.08,3.46,2.07,6.85,4.01,10.15,6.11,1.67,1.07,3.2,2.38,4.74,3.64.48.4.88.94,1.2,1.49.62,1.09.25,1.84-.98,2.07-.53.1-1.08.08-2.06.13.73,1.01,1.23,1.79,1.82,2.49,2.47,2.94,5.02,5.81,7.44,8.79.9,1.1,1.65,2.37,2.23,3.67.66,1.51.34,2.17-1.26,2.69-.99.33-1.5.88-1.62,1.83-.23,1.9-.69,3.82-.54,5.7.51,6.46-.09,12.76-2.08,18.94-1.11,3.45-.94,6.82.32,10.3,2.77,7.67,4.97,15.53,6.32,23.59.49,2.9.54,5.88.77,8.83.04.47.02.97-.06,1.43-.14.8-.39,1.76-1.33,1.69-.5-.04-1.16-.78-1.38-1.35-1.72-4.5-3.87-8.77-6.68-12.7-1.58-2.21-3.21-4.37-5.39-5.99-2.72,1.11-1.82,1.25-4.47-.07-2.42-1.2-4.69-2.72-7.19-4.19-1.37,2.11-3.37,1.97-5.24,1.04-2.63-1.32-5.15-2.86-7.63-4.44-1.88-1.19-3.62-2.59-5.74-4.12-.45,1-.8,1.74-1.11,2.5-.83,2.02-1.87,2.56-3.71,1.43-2.03-1.25-4-2.67-5.71-4.32-2.75-2.66-5.27-5.57-7.89-8.37-.26-.27-.57-.5-.98-.84-.27.67-.47,1.18-.68,1.68-.72,1.7-1.48,2-3.17,1.18-1.9-.92-3.49-2.23-4.78-3.91-2.91-3.77-5.07-7.94-6.61-12.44-.65-1.88-1.28-3.76-1.92-5.65-2.16.9-2.61.89-3.78-1.06-3.32-5.48-5.76-11.33-5.3-17.87.22-3.08-.51-5.44-3.01-7.51-1.4,2.51-2.96,4.91-4.14,7.48-3.64,7.91-7.01,15.95-10.72,23.82-2.47,5.23-2.89,10.55-1.94,16.13,1.24,7.33,2.35,14.68,3.63,22,1.52,8.74,3.13,17.46,4.78,26.17.49,2.59,1.22,5.13,1.9,7.68.26.99.69,1.94,1.15,3.21,1.02-.7,1.87-1.25,2.68-1.84,8.72-6.36,17.4-12.77,26.18-19.06,3.31-2.37,6.82-4.46,10.26-6.63,4.78-3.02,10.02-3.51,15.48-2.65,12.52,1.97,24.65,5.36,36.45,9.96,1.49.58,2.91,1.31,4.36,1.99.24.11.42.35.52.75-2.92-1.01-5.84-2-8.76-3.02-10.35-3.64-20.95-6.27-31.76-8.16-6.02-1.05-11.63-.52-16.75,2.98-5.8,3.97-11.6,7.95-17.33,12.03-6.51,4.63-12.95,9.38-19.42,14.07-.64.47-1.31.89-1.98,1.34-1.68-.41-2.1-1.8-2.42-3.07-1.04-4.1-2.13-8.21-2.87-12.37-2.11-11.8-4.09-23.62-6.05-35.45-.78-4.73-1.43-9.48-2.06-14.23-.4-2.98-.04-5.88,1.05-8.71,3.67-9.56,7.93-18.86,12.44-28.04,1.26-2.57,2.91-4.96,4.43-7.41.68-1.09.86-2.18.28-3.66-.42.66-.76,1.14-1.04,1.65-5.33,9.75-10.61,19.52-16,29.23-2.19,3.95-3.92,4.15-6.94.8-4.43-4.92-7.27-10.61-8.26-17.25-.95-6.31.02-12.45,1.15-18.57,1.16-6.28,2.56-12.52,3.86-18.78.02-.08.06-.16.06-.23-.33-4.19,2.37-5.73,5.8-6.64.52-.14,1.04-.33,1.78-.57-.52-1.07-.97-2.02-1.42-2.95-2.02.76-3.79,1.43-5.88,2.21-.2-1.05-.52-1.87-.48-2.67.44-7.66.67-15.35,1.5-22.97,1.09-9.97,3.26-19.71,7.99-28.71,1.64-3.12,3.89-5.66,6.76-7.65.75-.52,1.78-1.07,2.58-.94,1.01.16,1.67.08,2.29-.67.69-.83,1.21-1.73.91-2.85-.19-.68-.46-1.36-.81-1.98-.74-1.32-1.56-2.59-2.34-3.88-.69.66-1.3,1.51-2.12,2.02-4.03,2.51-6.73,6.15-8.63,10.36-4.08,9.06-7.44,18.38-9.05,28.23-1.16,7.1-2.18,14.22-3.17,21.34-.34,2.45-.47,4.94-.57,7.41-.57,13.27-1.9,26.47-4.04,39.58-.1.63-.49,1.21-.94,2.28-3.59-4.21-6.87-8.05-10.15-11.89-.89,1.09-1.58,1.94-2.39,2.94.37.34.82.74,1.26,1.15,1.93,1.79,4.12,3.38,5.74,5.42,7.56,9.52,13.54,19.99,17.59,31.45,1.48,4.19,2.45,8.66,2.91,13.08,1.07,10.26,3.35,20.31,4.96,30.47,1.23,7.74,2.38,15.49,3.51,23.24,1.56,10.76,3.19,21.51,4.57,32.29,1.2,9.35,2.05,18.75,3.14,28.12,1.31,11.28,2.72,22.54,4.06,33.81.5,4.21.92,8.42,1.42,12.63.11.94.28,1.9.6,2.79,1.1,3.08,2.35,6.1,3.4,9.19.43,1.27.51,2.66.79,4.23,2,.32,2.57,2.06,2.95,3.89.64,3.1.75,6.18-.41,9.22-.25.66-.4,1.36-.58,2.03.62.47,1.39.77,1.66,1.32.33.67.38,1.56.32,2.33-.32,3.69-1.05,7.28-3.06,10.48-.21.33-.37.69-.54,1.02,1.79,1.4,2.02,1.8,1.19,3.82-.72,1.76-1.71,3.42-2.67,5.07-.45.77-.88,1.4-.62,2.41,1.89,7.48,1.64,15.04.9,22.64-.99,10.04-2.98,19.91-4.72,29.83-1.04,5.9-1.73,11.86-2.67,17.78-.89,5.6-1.88,11.19-2.87,16.78-.28,1.57-.77,3.1-1.07,4.67-.19,1.01-.35,2.07-.24,3.07.39,3.75.22,4.06-3.3,4.99.98,2.22,1.62,2.98,3.6,4.13.24-.97.46-1.88.71-2.88,1.43,1.27,1.74,3.17.82,4.24-.68.79-1.62.85-2.4.4-.95-.55-1.93-1.23-2.56-2.09-1.37-1.86-2.79-3.75-3.74-5.84-4.83-10.7-11.99-19.76-19.51-28.64-6.97-8.23-13.7-16.68-20.27-25.24-6.57-8.57-13.18-17.09-20.41-25.13-3.42-3.8-6.42-7.97-9.97-11.63-2.98-3.08-5.52-6.41-7.68-10.07-3.14-5.31-5.08-10.99-5.54-17.19-.34-4.62.5-9.08,1.56-13.52.51-2.18,1.19-4.31,1.78-6.47.14-.51.23-1.04.18-1.61-2.52,5.04-3.8,10.44-4.49,15.98-.69,5.6.14,11.12,1.42,16.6-1.42.14-2.04-.59-2.61-1.37-7.3-9.97-11.18-20.9-9.8-33.45.78-7.12,2.45-13.99,4.85-20.72,2.1-5.87,4.11-11.77,6.16-17.65.1-.28.15-.58-.04-.99-.28.58-.58,1.15-.83,1.74-4.15,9.97-8.19,19.97-10.56,30.55-1.37,6.11-2.16,12.29-1.23,18.56.24,1.64.68,3.24,1.05,4.98-.39-.11-.61-.11-.65-.19-2.93-6.48-5.7-13.02-7.49-19.93-1.68-6.48-2.72-13.04-1.45-19.7.94-4.94,2.29-9.79,3.48-14.68.22-.91.54-1.8.59-2.8-1.02,1.43-1.58,3.07-2.17,4.69-.59,1.65-1.14,3.33-1.61,5.02-.49,1.77-.91,3.56-1.27,5.36-.34,1.71-.57,3.45-.85,5.21-1.23.43-1.98-.24-2.37-1.11-.68-1.51-1.42-3.07-1.67-4.69-1.04-6.71-.9-13.38,1.15-19.93.31-.98.53-1.98.41-3.09-.5,1.57-1.04,3.12-1.5,4.7-.47,1.61-.82,3.26-1.29,4.86-.49,1.65-.68,3.47-2.57,4.79-.6-1.17-1.16-2.25-1.8-3.5-.82-.18-1.8-.4-3.12-.69,1.19,1.56,2.2,2.88,3.23,4.2,1.88,2.42,3.39,4.98,4.22,7.99.82,3,2.03,5.89,3.04,8.83.33.96.54,1.95.82,2.93-1.29.79-2.01.07-2.71-.53-1.58-1.35-3.13-2.74-4.7-4.1-.33-.28-.72-.5-1.33-.47.5.55,1,1.1,1.51,1.65,1.64,1.75,3.24,3.54,4.92,5.25,3.03,3.07,4.38,6.99,5.6,10.98.14.46.14,1.24-.14,1.49-.29.26-1.04.19-1.51.03-1.11-.38-2.17-.89-3.43-1.09.96.74,1.93,1.47,2.88,2.23,2.65,2.13,4.87,4.55,5.97,7.91.92,2.81,2.1,5.52,3.15,8.29.16.43.25.88.51,1.85-2-1.29-3.51-2.38-5.13-3.29-1.64-.93-3.37-1.68-5.25-2.18.28.19.54.42.84.57,4.49,2.13,8.24,5.22,11.33,9.06,3.31,4.11,6.46,8.33,9.66,12.52.36.48.57,1.08,1.04,1.99-4.5-.2-8.28-1.94-12.33-2.48,1,.36,1.99.79,3.01,1.08,6.58,1.86,11.99,5.61,16.6,10.53,2.34,2.5,4.38,5.29,6.6,7.91.66.79,1.5,1.43,2.19,2.19,2.8,3.07,5.71,6.05,8.34,9.26,5.52,6.74,10.97,13.54,16.27,20.46,3.2,4.19,6.08,8.62,9.08,12.97,8.9,12.89,17.88,25.74,26.64,38.73,3.3,4.89,6.14,10.11,9.09,15.23,2.68,4.67,3.71,9.91,4.27,15.14.79,7.48,1.8,14.91,2.94,22.34,1.33,8.69,2.3,17.43,3.38,26.16.84,6.74,1.88,13.47,2.37,20.24.74,10.2,1.06,20.44,1.59,30.66.65,12.46,1.12,24.93.81,37.41-.21,8.55-.77,17.1-.94,25.65-.1,5.35.24,10.7.38,16.05.17.03.35.05.52.08.18-.58.36-1.16.53-1.74.81-2.76,1.49-5.56,2.46-8.26.61-1.71,1.37-3.5,2.54-4.85,1.26-1.46,1.32-2.84,1.16-4.58-.43-4.45-.86-8.92-.93-13.39-.21-14.07-.39-28.15-.31-42.22.04-6.29,1.54-12.36,4.56-17.97.53-.99,1.07-1.97,1.66-2.92,4.17-6.68,6.73-13.9,7.62-21.76.5-4.36,1.44-8.67,2.23-12.99.23-1.24.17-2.14-.87-3.18-.8-.8-1.12-2.28-1.25-3.5-.42-3.81-.68-7.64-.97-11.47-.99-13.25-2.77-26.39-5.58-39.38-.66-3.05-1.28-6.1-1.88-9.16-1.32-6.77-3.51-13.28-5.69-19.8-.69-2.08-1.17-4.23-1.89-6.9-.84,3.35-1.64,5.91-.57,9.02,4.31,12.49,6.9,25.42,9.51,38.36,2.92,14.49,4.21,29.1,4.37,43.84.08,6.98-.85,13.88-2.2,20.71-.67,3.41-2.16,6.51-3.9,9.49-.7,1.19-1.7,1.25-2.32,0-.78-1.56-1.45-3.22-1.86-4.92-2.77-11.36-4.56-22.88-5.79-34.5-.7-6.6-1.47-13.19-2.16-19.79-.44-4.21-1.06-8.43-1.13-12.65-.09-5.24-.28-10.53.98-15.71.65-2.65.7-5.18-1.02-7.57-.46-.64-.6-1.69-.52-2.52.26-2.77.47-5.58,1.09-8.29,2.91-12.78,5.95-25.52,8.94-38.28,1.24-5.29,2.45-10.59,3.65-15.89.16-.69.22-1.42.2-2.13-.07-2.04.25-3.98,1.1-5.83.23-.49.31-1.06.43-1.59,1.9-8.11,2.63-16.4,3.78-24.63,1.2-8.53,2.83-17.01,4.31-25.5.13-.78.41-1.55.72-2.28.48-1.13,1.37-1.71,2.63-1.72,2.38-.03,4.66.28,6.45,2.04,1.99,1.96,4.17,3.79,5.84,6,3.03,4.01,5.85,8.19,8.55,12.43,3.05,4.78,5.99,9.65,8.78,14.58,5.28,9.32,10.41,18.72,15.61,28.08,2.25,4.04,4.53,8.07,6.85,12.22ZM357.33,460.62c-.45-.76-.91-1.51-1.36-2.27-.15.12-.31.23-.46.35.62.63,1.24,1.25,1.86,1.88.82,1.41,1.63,2.81,2.45,4.22-.49-2.26-1-2.99-2.49-4.17ZM390.96,352.14c-1.59.47-3.19.94-4.78,1.4-1.85.54-3.26,1.54-4.07,3.38-.47,1.09-1.14,2.1-1.82,3.08-.88,1.27-1.15,2.68-.77,4.1.67,2.53,1.46,5.03,2.32,7.5.28.79.95,1.44,1.44,2.16-.77-6.1.32-11.61,3.45-16.68.72-1.17,1.87-2.06,2.83-3.09-.22.4-.4.84-.67,1.21-3.5,4.75-5.07,10.06-4.65,15.95.12,1.67.48,3.28,1.61,4.64.29-.16.52-.25.69-.4,3.58-3.09,5.69-7.25,8.05-11.22.23-.39.33-.93.28-1.38-.3-2.93.74-6.09-1.51-8.71-.33-.38-.29-1.07-.51-1.57-.09-.21-.42-.32-.64-.47.27-.7,1.15-1.3.37-2.25-.56.82-1.08,1.59-1.61,2.35ZM365.36,573.65c-1.33-.19-2.65-.46-3.99-.55-1.17-.07-2.47-.25-3.49.18-1.6.66-3.05,1.73-4.47,2.75-.55.39-1.09,1.06-1.24,1.69-.58,2.47-1.03,4.98-1.47,7.48-.06.36.19.78.35,1.39,3.84-7.31,7.9-11.31,11.62-11.56-7.02,3.98-11.01,9.35-10.48,14.29,2.76-.33,5.03-1.76,7.44-2.96,2.95-1.47,5.02-3.58,6.05-6.7.22-.66.42-1.35.47-2.04.08-1.01.02-2.04.02-3.25-.16-.14-.51-.45-.84-.75,1.82.37,1.95.26,1.87-1.61.14-.68.43-1.38.38-2.04-.16-2.17.41-4.11,1.6-5.9.65-.98,1.32-1.96,2.14-3.19-2.5-1.52-4.8-3.11-7.27-4.37-8.4-4.28-16.84-8.48-25.3-12.63-4.44-2.18-8.95-4.25-13.47-6.27-2.99-1.34-6.18-1.59-9.4-1.2-3.13.38-5.39,2.08-6.46,5.02-.98,2.71-1.16,5.5.81,7.97,2.65,3.34,9.67,4.8,13.48,2.83,1.68-.87,2.25-1.9,2.06-3.93-.69.3-1.31.64-1.97.83-1.3.37-2.6.85-3.93.93-2.51.15-4.47-1.03-5.85-3.1-.51-.76-.68-1.69.03-2.44.73-.78,1.67-.63,2.4-.07.86.67,1.63,1.5,2.3,2.36.42.54.59,1.28.88,1.95,1.87.3,3.29-.68,4.82-1.31.67-.27,1.82-.55,2.16-.22.51.5.75,1.56.66,2.34-.23,2.13-1.71,3.34-3.59,4.1-.72.29-1.47.51-2.4.82.66,1.73,1.27,3.31,1.76,4.59,1.04-.28,1.98-.83,2.37-.56.52.36.75,1.32.82,2.06.07.68-.08,1.46-.37,2.1-.81,1.8.14,2.93,1.4,4.38.2-1.07.27-1.84.51-2.57.32-1,.74-2.1,2.01-2.07,1.17.02,1.92.91,2.16,1.96.26,1.14.4,2.38.24,3.52-.15,1.07-.77,2.07-1.18,3.11-.08.21-.12.44-.21.74.4.46.8.92,1.31,1.52.29-.66.46-1.16.72-1.61.78-1.37,1.78-1.57,2.88-.49.49.49.87,1.14,1.13,1.79.83,2.07-.08,3.7-1.58,5.16.26.46.47.89.73,1.28.13.19.35.31.53.45,1.6-1.08,2.29-1.01,2.98.52.73,1.61,1.24,3.33.67,5.11-.29.9-.37,1.6.66,2.17.12-.73.06-1.38.34-1.8.46-.68,1.11-1.59,1.76-1.68.66-.08,1.61.6,2.09,1.21.51.65.74,1.59.87,2.44.19,1.22.17,2.47.25,3.82,1.42-.6,2.72-1.16,4.14-1.76-.15-.84-.36-1.61-.41-2.38-.08-1.34-.5-2.28-1.74-3.12-.84-.57-1.31-1.95-1.57-3.06-.21-.91.23-1.91,1.2-2.42.94-.49,1.45.3,2.08.75.08.06.27-.03.49-.06.11-.34.27-.7.36-1.08.48-2,1.65-3.42,3.5-4.3.43-.21.88-.43,1.23-.73,2.18-1.89,4.61-1.99,7.19-1.07,1.6.57,3.13.56,4.59-.4-.03,1.18-1.06,1.26-1.82,1.65ZM317.58,220.67c.32-.22.68-.39.95-.67,2.51-2.63,4.71-5.43,5.52-9.11.12-.53.79-1.38,1.04-1.33.6.12,1.28.6,1.6,1.14.39.65.52,1.5.63,2.28.46,3.3-.4,6.36-1.92,9.24-1.84,3.46-3.79,6.85-5.69,10.27-.4.72-.81,1.44-1.21,2.16,1.5-1.35,2.64-2.89,3.72-4.46,1.13-1.65,2.3-3.28,3.28-5.01.95-1.66,1.84-3.38,2.46-5.18.63-1.81.91-3.75,1.37-5.74,1.65,1.06,1.89,1.37,2.16,2.94.56,3.27.63,6.51-.35,9.73-1.27,4.21-2.46,8.44-3.67,12.66-.16.55-.22,1.14-.33,1.71,3.27-6.69,6.64-13.32,6.18-21.64,1.01.85,1.69,1.25,2.13,1.83,1.71,2.21,3.38,4.46,4.97,6.75.49.7.85,1.57,1.01,2.41.57,3.06,1.26,6.13,1.48,9.22.36,5.09.4,10.2.55,14.83,1.88-7.34,1.6-15.22-.15-23.12,1.59-.22,2.11.86,2.75,1.58,4.91,5.5,9.21,11.44,12.8,17.9,2.23,4.01,3.35,8.27,3.5,12.82.03.86.16,1.72.24,2.58.18-.02.36-.03.54-.05v-9.2c1.71.84,2.59,2.05,3.36,3.34,2.31,3.87,3.92,8.03,5.17,12.35.22.75.45,1.51.64,2.14.39-.84.77-1.66,1.2-2.59-1.47-3.32-2.99-6.73-4.63-10.42,1.12-.17,2.04-.31,2.8-.42-2.38-2.17-4.87-4.17-7.04-6.48-3.47-3.69-4.83-6.09-4.98-8.18,2.75.54,5.44,1.07,8.13,1.6-1.66-.97-3.4-1.53-5.12-2.13-3.08-1.08-5.78-2.76-7.84-5.32-2.56-3.17-5.05-6.4-7.52-9.64-.39-.52-.55-1.22-1.03-2.32,1.42.19,2.37.16,3.22.45,2.72.93,5.39,1.99,8.1,2.97.74.27,1.51.44,2.27.66-.28-.67-.67-.92-1.1-1.1-3.53-1.5-6.99-3.19-10.6-4.44-6.82-2.35-10.8-7.84-15.35-13.13,1.01-.11,1.73-.19,2.76-.31-.66-.3-1-.51-1.37-.62-3.54-1.05-6.16-3.29-8.15-6.34-.7-1.07-1.35-2.17-2-3.27-.45-.77-.87-1.55-1.98-1.45-.82,1.02-.92,1.93.21,2.86,1.27,1.04,1.4,2.47.96,3.94-.35,1.14-.71,2.31-1.27,3.35-1.42,2.66-2.96,5.26-4.46,7.89l-2.05,2.02c.12.11.24.22.37.33.59-.76,1.18-1.52,1.77-2.28ZM397.08,616.31c1.56-1.4,2.31-3.23,2.51-5.25.08-.82,0-1.88-.45-2.51-1.57-2.2-2.48-4.6-2.61-7.16-1.8-.6-3,.42-4.33.87-2.62.88-4.43-.33-4.58-3.09-.08-1.44.53-2.61,1.29-3.78.95-1.44,2.11-2.83,1.91-4.83-1.1-.6-2.18-1.19-3.61-1.96,0,3.43-1,6.24-2.85,8.72-1.9,2.55-4.4,4.34-7.35,5.47.04.67.01,1.16.11,1.62.77,3.71-.03,7.14-1.82,10.39-1.07,1.94-2.15,3.75-1.3,6.22.43,1.25-.05,2.8-.15,4.69.7-1.21,1.07-2.1,1.65-2.8,1.09-1.3,2.66-1.01,3.13.61.26.88.15,1.88.08,2.82-.06.82-.29,1.62-.47,2.57,3-.83,3.56-1.49,3.52-3.94-.04-1.89.36-3.66,1.45-5.23,1-1.44,2.18-1.49,3.36-.2,1.01,1.11,1.16,2.42.87,3.82-.18.83-.45,1.65-.77,2.83,1.41-.24,2.54-.43,3.42-.59-.18-2.04-.47-3.83-.44-5.61.02-1.02.57-2.08,1.87-2.14,1.28-.06,1.84.91,2.14,1.92.27.92.28,1.91.45,3.16,1.32-1.83,1.77-3.67,2.23-5.51.25-.38.49-.75.74-1.13ZM347.26,217.78c.22-1.18-.27-1.97-1.34-2.48-.86-.41-1.66-.95-2.53-1.34-5.84-2.59-11.47-5.56-16.72-9.22-.35-.24-.78-.36-1.43-.65,2.88,5.28,5.61,7.48,11,8.87,2.86.74,5.68,1.57,8.24,3.1.94.56,1.88,1.12,2.82,1.68-.09.37-.17.74-.33,1.4-3.96-1.62-7.77-3.33-12.22-3.76,4.39,5.5,9.13,9.92,15.75,12.06,6.1,1.97,11.78,4.97,17.31,8.18,1.77,1.02,3.24,2.55,4.81,3.9.29.25.36.75.53,1.13-.72-.05-1.21-.28-1.55-.64-2.41-2.5-5.4-3.85-8.7-4.8-3.37-.97-6.64-2.26-9.96-3.42-1.21-.42-2.39-.91-3.6-1.31-.47-.15-.99-.14-1.92-.25,2.28,2.81,4.39,5.2,6.25,7.78,3.31,4.57,7.77,7.25,13.15,8.6,2.48.62,5.03,1.04,7.42,1.91,2.53.92,4.96,2.16,7.33,3.45,1.19.65,2.16,1.74,2.84,3.57-.74-.35-1.05-.43-1.25-.61-2.63-2.45-5.91-3.39-9.31-4.08-3.91-.8-7.81-1.66-11.72-2.49-.47-.1-.95-.16-1.67-.28,3.79,5.19,7.74,9.73,13.07,12.94,3.22,1.94,6.32,4.08,8.89,6.88.27.29.64.49.97.73.16-2.24.23-4.31.49-6.36.27-2.1.89-4.07,3.46-4.92-1.22-1.67-2.23-3.2-3.39-4.6-2.24-2.71-4.63-5.3-6.84-8.04-.66-.82-1.29-1.99-1.23-2.96.06-.85,1.1-1.63,1.84-2.6-1.15-.85-2.3-1.84-3.58-2.63-3.48-2.13-7.01-4.16-10.51-6.24-.62-.37-1.28-.68-1.82-1.14-.71-.6-.85-1.34-.07-2.04.25-.23.5-.46.83-.77-4.57-4.12-9.76-6.65-15.32-8.53ZM446.86,406.93l.04.52c-2.12.27-4.25.49-6.36.84-6.78,1.12-13.53,2.38-19.91,5.11-1.42.61-2.29,1.3-2.72,2.89-.74,2.78-3.02,4.24-5.65,3.39-2.19-.71-3.92-.15-5.68.83-6.72,3.7-13.42,7.43-19.56,12.09-4.2,3.19-8.49,6.28-12.81,9.3-2.32,1.62-4.79,3.03-7.49,4.72.83.08,1.35.2,1.87.17,3.03-.16,6.07-.25,9.09-.57,9.83-1.05,19.35-3.4,28.39-7.48,6.26-2.82,12.44-5.84,18.74-8.6,7.09-3.11,14.2-6.22,21.43-8.98,6.98-2.66,14.37-3.74,21.75-4.64,3.88-.48,7.8-.46,11.71.23-1.39.28-2.8.41-4.21.46-7.39.23-14.61,1.61-21.75,3.36-9.93,2.43-19.15,6.54-27.87,11.91-10.78,6.64-22.07,12.25-34.28,15.83-.46.14-.9.37-1.75.74.93.25,1.37.41,1.82.49,10.71,1.89,21.27,1.61,31.77-1.59,10.03-3.05,19.83-6.68,29.55-10.57,9.06-3.62,18.15-7.1,27.72-9.16,4.98-1.07,9.96-1.82,15.08-1.39-2.01.41-4.09.47-6.08.91-5.46,1.2-10.96,2.29-16.3,3.89-13.96,4.18-27.27,10.04-40.44,16.22-4.72,2.22-9.52,4.12-14.54,5.51-.51.14-.99.37-1.72.64.47.2.66.32.87.37,8.89,2.2,17.93,2.8,26.87,1.05,6.55-1.29,12.94-3.52,19.3-5.62,6.22-2.05,12.25-4.66,18.47-6.68,7.7-2.51,15.59-4.22,23.79-3.62.47.03.92.19,1.38.29-2.94.47-5.82.51-8.65.93-8.1,1.18-15.87,3.56-23.49,6.54-6.09,2.39-12.28,4.56-18.48,6.67-5.23,1.78-10.53,3.41-16.1,4.02.78.33,1.55.55,2.33.66,7.13.96,14.24,2.02,21.39,2.82,6.09.68,12.14.39,17.96-1.87,1.71-.66,3.43-1.31,5.14-1.99,9.27-3.67,18.81-5.63,28.83-4.61.49.05.98.18,1.47.28-.42.37-.79.44-1.16.42-10.67-.38-20.74,2.11-30.52,6.21-3.01,1.26-6.21,2.05-9.33,3.05-.47.15-.95.25-1.55.41.33.29.43.46.56.49,5.04.86,10.06,1.87,15.13,2.52,7.05.9,14.13,1.62,21.21,2.26,5.57.5,11.15,1.06,16.75.25.77-.11,1.57-.02,2.36-.02-3.7,1.03-7.46,1.62-11.28,1.38-7.34-.46-14.71-.74-21.98-1.7-10.21-1.35-20.34-3.27-30.51-4.9-1.96-.31-3.94-.64-5.95-.37.44.48.9.78,1.38,1.03,5.23,2.81,10.07,6.19,14.63,9.99,1.96,1.64,3.97,3.24,6.03,4.74,3.7,2.7,7.67,4.92,12.04,6.34,1.24.4,2.52.68,3.78,1.01-.43.33-.8.37-1.17.33-3.3-.36-6.37-1.46-9.33-2.91-4.56-2.23-8.59-5.24-12.49-8.44-5.27-4.34-10.92-8.08-17.06-11.07-2.45-1.19-4.96-2.18-7.69-2.56-3.56-.5-7.11-1.07-10.65-1.67-2.2-.37-4.42-.74-6.57-1.35-1.91-.54-4.15-.89-6.46-.54,2.2,1.31,4.34,2.52,6.41,3.85,7.83,5.02,15.08,10.78,21.86,17.15,4.72,4.44,9.44,8.87,14.13,13.34,4.16,3.97,8.65,7.36,14.35,8.79.59.15,1.15.44,1.72.67-3.74-.19-7.3-1-10.35-3.17-2.47-1.75-4.86-3.64-7.11-5.67-5.17-4.66-10.21-9.46-15.33-14.16-7.14-6.56-14.76-12.52-23.13-17.44-2.6-1.53-5.44-2.67-8.25-3.8-1.42-.57-3.01-.7-4.53-1.02.15.83.5,1.23.84,1.64,2.65,3.2,5.56,6.22,7.9,9.63,4.83,7.05,9.32,14.33,14.02,21.48,4.81,7.33,10.04,14.28,18.02,19.13-2.56-.46-4.31-1.66-5.94-3.08-3.37-2.96-6.61-6.07-9.18-9.77-3.6-5.18-7.13-10.42-10.6-15.69-3.95-5.99-8.65-11.29-14.12-15.91-4.62-3.9-9.55-7.29-15.57-8.62-3.19-.7-6.45-1.13-9.68-1.66-.47-.08-.96-.01-1.29-.01,2.21,2.09,4.57,4.01,6.57,6.25,4.92,5.52,8.77,11.79,12.36,18.22,2.49,4.47,4.85,9.01,7.38,13.45,5.34,9.36,14.56,19.11,23.17,24.64-2.13-.15-2.77-.23-4.54-1.69-2.89-2.39-5.65-4.94-8.47-7.43-4.24-3.74-7.63-8.16-10.52-13-2.5-4.19-5.06-8.34-7.54-12.54-5.8-9.84-13.86-17.51-23.15-23.96-4.07-2.82-8.67-4.41-13.52-5.27-.78-.14-1.59-.1-2.38-.14-.05.16-.1.31-.15.47,7.47,5.16,11.26,12.92,14.91,20.78.37.8.74,1.6,1.15,2.37,5.25,9.9,11.06,19.45,17.72,28.48,4.55,6.17,9.79,11.6,16.44,15.56.75.45,1.42,1.02,2.13,1.54-5.59-2.01-10.22-5.38-14.17-9.63-2.28-2.45-4.4-5.08-6.41-7.76-5.9-7.88-11.06-16.24-15.79-24.88-6.08-11.1-15.62-18.66-26.28-24.94-2.68-1.58-5.76-2.15-9.39-2.55.73.78,1.07,1.2,1.46,1.55,5,4.53,8.82,9.85,11.16,16.24,3.45,9.4,7.72,18.39,13.34,26.74,4.49,6.67,9.24,13.04,15.37,18.3.62.53,1.16,1.16,1.74,1.75-.38.13-.61.09-.77-.04-5.35-4-10.15-8.54-13.96-14.07-6.44-9.36-12.52-18.93-17.54-29.15-1.59-3.22-3.39-6.34-5.26-9.41-1.92-3.17-4.45-5.85-7.37-8.14-1.8-1.41-2.9-1.78-5.03-1.78,2.6,2.53,4.48,5.39,5.66,8.66.95,2.63,1.94,5.26,2.63,7.96,1.33,5.18,2.53,10.4,3.66,15.64,1.93,8.95,6.37,16.46,12.83,22.86.06.06-.02.25-.06.54-1.77-.79-3.08-2.03-4.26-3.43-3.42-4.06-6.43-8.42-8.3-13.4-1.79-4.78-3.26-9.68-4.79-14.56-1.46-4.65-2.76-9.36-5.13-13.67-1.71-3.1-3.71-6-6.81-7.91-2.84-1.75-5.54-1.52-8.3.61,1.17,1.59,2.5,3.09,3.48,4.78,2.07,3.6,2.86,7.56,3.02,11.72.09,2.37.32,4.84,1.09,7.05,1.75,5.05,3.87,9.98,5.85,14.95,1.08,2.72,3.1,4.58,5.39,5.99,1.41-.49,2.62-.96,3.86-1.31.29-.08.79.16,1.03.42.44.46.79,1.01,1.1,1.56,2.73,4.91,6.64,8.78,10.89,12.34.46.38,1.01.66,1.6,1.04.22-2.98,1.3-3.52,3.62-1.96.73.49,1.34,1.15,2.07,1.64,4.11,2.75,8.23,5.49,12.38,8.19.69.45,1.53.68,2.36,1.03.3-2.21.32-2.22,1.96-2.06.39.04.97.27,1.13.09,1.41-1.51,2.83-.49,4.22-.07,7.11,2.14,14.21,4.33,21.33,6.45.92.27,1.93.23,2.89.34-.2-.85-.57-1.23-.9-1.65-.54-.69-1.33-1.49-.67-2.31.41-.5,1.4-.55,2.15-.73.29-.07.62.1.94.15,2.05.31,4.1.65,6.17.91,2.76.35,5.53.57,8.28.05.14-2.15.24-2.28,2.16-2.37.96-.04,1.92.02,2.88.02,4.74-.01,9.41-.57,13.98-1.87.64-.18,1.25-.51,1.95-.8-.26-.48-.43-.75-.56-1.03-.87-1.85-.57-2.6,1.42-3.13.84-.22,1.73-.32,2.6-.36,3.91-.16,7.83-.24,11.75-.42,3.53-.16,6.95-.96,10.28-2.02.46-1.99.48-2.01,2.28-2.67,4.12-1.52,8.25-3.03,12.36-4.58.86-.32,1.68-.78,2.77-1.3-.95-.54-1.6-.82-2.16-1.24-1.1-.82-1.07-1.83.12-2.45.69-.36,1.5-.56,2.28-.7,5.17-.9,10-2.75,14.65-5.11.62-.32,1.46-.67,1.69-1.22,1.06-2.55,3.06-3.87,5.45-4.98,2.17-1.01,4.32-2.27,5.57-4.41,1.11-1.91,2.13-3.93,2.77-6.02.38-1.25,1-2.11,1.86-2.95,2.47-2.43,5.35-4.26,8.54-5.71-.4-2.1-1.74-3.49-3.14-4.79-1.58-1.46-3.26-2.83-4.96-4.16-3.05-2.39-5.69-5.15-7.78-8.41-1.65-2.59-1.41-3.02,1.61-3.19.1,0,.19-.2.37-.4-.26-.35-.52-.74-.81-1.1-2.42-2.91-5.22-5.39-8.37-7.49-1-.66-2.02-1.32-2.91-2.1-.95-.83-.84-1.66.21-2.33.52-.33,1.11-.55,1.72-.85-.15-.31-.21-.56-.36-.71-5.15-5.08-10.53-9.82-17.57-12.2-.84-.28-2.24-.34-2.1-1.53.08-.64,1.24-1.15,1.96-1.76-3.42-2.31-7.19-4.21-11.27-5.4-4.06-1.18-8.18-2.17-12.27-3.24-.83-.22-2.01-.21-1.99-1.3.01-.57.93-1.11,1.42-1.68.07-.08.05-.24.07-.37-.15-.09-.28-.19-.43-.25-.45-.16-.9-.32-1.36-.45-7.17-2.11-14.49-3.27-21.98-3.24-.88,0-1.76.06-2.64,0-1.74-.11-2.23-.98-1.44-2.57.24-.48.58-.91,1.04-1.63-1.67-.6-3.12-1.21-4.63-1.64-2.86-.83-3.8-.17-4.98,2.51-.86,1.93-2.09,3.72-3.3,5.47-.36.53-1.15.87-1.81,1.07-2.18.66-3.82-.38-4.89-2.11-1.17-1.89-2.03-3.97-3.01-5.97-.36-.74-.45-1.68-1.45-2.17-.62,5.56-2.04,10.71-5.22,15.25,4.68-1.2,9.1-2.5,13.59-3.45,4.55-.97,9.15-1.87,13.83-1.31ZM232.01,435.41c-2.94-.75-3.17-.96-2.61-3.02,1.96-7.31,1.54-14.75,1.22-22.18-.03-.71-.24-1.42-.38-2.12-.22-1.13-.68-1.93-2.04-1.85-1.14.07-1.52-.68-1.51-1.7,0-.4,0-.8.03-1.2.65-8.5-1.25-16.51-4.66-24.23-.24-.55-.62-1.03-.96-1.58-.55.24-.9.4-1.27.55-1.91.77-2.77.38-3.46-1.56-.19-.53-.33-1.07-.45-1.62-1.48-6.87-4.46-13.14-7.7-19.31-.17-.32-.49-.56-.75-.84-.29.22-.49.35-.67.51-1.96,1.7-2.87,1.56-3.97-.73-.55-1.15-.95-2.37-1.4-3.57-1.7-4.51-3.63-8.9-6.81-12.59-1.03-1.19-2.24-2.29-3.55-3.16-1.62-1.08-2.22-.96-3.52.49-1.93,2.13-3.89,4.26-5.6,6.57-5.91,7.96-11.5,16.17-17.66,23.93-2.84,3.58-3.8,7.4-4.08,11.67-.02.24-.03.48-.03.72,0,6.39-.22,12.79.05,19.17.29,6.88,1.44,13.66,3.68,20.22.64,1.88,1.06,3.84,1.53,5.78.27,1.12.58,2.2,1.54,3.55.4-1.27.67-2.08.92-2.9,2.4-7.96,4.79-15.91,7.19-23.87.9-2.98,1.79-5.97,2.74-8.94,2.44-7.63,3.12-15.48,2.96-23.45-.03-1.35,0-2.7,0-4.06.16,0,.32,0,.48,0,.17,3.34.54,6.69.46,10.02-.19,8.19-1.64,16.22-3.6,24.14-1.75,7.06-3.72,14.06-5.72,21.05-1.84,6.45-1.83,12.94-.75,19.48.22,1.31.58,2.59,1.81,3.75.8-5.53,2.01-10.65,4.01-15.54,3.95-9.69,8.01-19.35,11.93-29.05,4.17-10.3,8.32-20.61,8.45-32,.12.45.17.9.21,1.36.51,5.94-.8,11.64-2.66,17.18-3.39,10.07-7.07,20.04-10.46,30.11-2.24,6.66-4.34,13.38-6.24,20.14-1.59,5.65-2.28,11.46-1.55,17.34.79,6.38,2.6,12.51,4.89,18.5.22.57.52,1.1.78,1.65.37-.81.36-1.57.37-2.33.02-4.74.67-9.39,1.76-14,2.04-8.59,5.24-16.76,8.5-24.93,3.46-8.68,6.96-17.35,10.11-26.15,3.09-8.65,3.92-17.6,2.2-26.7-.14-.76-.25-1.52-.37-2.29.71,1.08,1.09,2.21,1.35,3.36,1.64,7.34,1.17,14.6-.74,21.83-3.83,14.45-8.21,28.73-13.4,42.76-1.97,5.33-3.51,10.79-4.34,16.43-1.04,7.03-1.1,14.02.8,20.94,1.31,4.76,3.8,8.96,6.25,13.17.3.51.71.96,1.24,1.66.04-.57.11-.81.06-1.03-1.94-9.35-.36-18.35,3.13-27,2.93-7.26,6.36-14.31,9.58-21.45,3.48-7.7,6.1-15.64,6.6-24.14.14-2.41.02-4.83.02-7.25.58.88.81,1.79.88,2.72.39,4.91-.31,9.74-1.22,14.54-1.4,7.35-4.22,14.24-7.13,21.08-2.88,6.78-5.46,13.65-7.21,20.82-1.24,5.06-2.1,10.15-1.49,15.43.84,7.29,3.99,13.58,8.03,19.54.13.19.38.29.49.37-.17-2.21-.56-4.36-.46-6.49.21-4.72,1.65-9.06,4.32-13.03,2.54-3.78,4.91-7.68,7.28-11.56.82-1.34,1.59-2.77,1.52-4.39-2.48-1.64-2.45-1.71-.84-4.07,1.35-1.98,2.77-3.95,3.82-6.08,4.43-8.97,7.16-18.45,8.13-28.56ZM308.26,514.1c1.3-1.98,1.79-4.12,2.07-6.28,1.32-10.23,2.58-20.46,3.86-30.69.56-4.46,1.29-8.91,3.45-12.9,2.87-5.3,7.11-9.51,12.1-12.75,6.36-4.13,12.16-8.76,16.88-14.75,3.76-4.77,7.67-9.43,11.62-14.04,3.53-4.13,7.19-8.15,10.82-12.2.58-.65,1.26-1.25,1.98-1.74,1.47-1,2.27-.64,2.65,1.11.06.26.1.52.18.9,2.86-2.48,5.54-4.81,8.22-7.13-3.89-5.48-4.48-9.11-3.03-19-4.24-.06-6.94-3.16-10.22-5.2-4.34-2.7-8.68-5.41-13.13-7.91-2.14-1.21-4.57-1.89-6.81-2.94-5.26-2.46-9.79-6.01-14.14-9.79-.72-.62-1.4-1.29-1.95-1.79-2.42.74-4.58,1.68-6.84,2.04-10.78,1.74-14.73-7.49-12.91-14.22.18-.68.38-1.35.64-2.27-.49.3-.77.43-1,.62-5.25,4.32-10.49,8.64-15.73,12.97-.49.41-.96.85-1.42,1.29-2.12,1.99-3.49,4.25-2.98,7.34.27,1.65.32,3.34.46,5.01,1.24,15.15,3.24,30.2,5.68,45.2,1.72,10.57,3.86,21.07,5.67,31.62,1.16,6.77,2.59,13.55,2.99,20.38.61,10.37.46,20.78.6,31.17.06,4.56.03,9.12.07,13.67,0,.76.15,1.52.23,2.27ZM321.09,205.89c-2.85,2.45-5.55,4.79-8.28,7.09-3.7,3.11-6.9,6.65-9.62,10.64-3.81,5.6-5.28,11.77-4.36,18.45.16,1.19.74,2.46,1.5,3.4,1.18,1.47,1.84,3.03,1.62,4.85-.74,6.24,1.25,11.83,4.02,17.24.35.7.81,1.34,1.22,2.01,2.35-1.48,2.83-1.34,3.7,1.08.65,1.8,1.23,3.63,1.85,5.45,1.54,4.49,3.64,8.7,6.63,12.41,1.19,1.48,2.54,2.8,4.51,3.21q1.28-2.88,3.06-3.31c5.68,7.15,12.28,13.07,15.75,14.04.23-.57.45-1.16.69-1.74,1-2.45,2.26-2.9,4.43-1.47,1.8,1.19,3.45,2.61,5.27,3.75,2.22,1.4,4.51,2.71,6.86,3.89.95.48,2.11.78,2.92-.59.59-1,1.6-.92,2.55-.42.63.34,1.23.74,1.85,1.1,2.12,1.25,4.24,2.5,6.24,3.68,2.19-1.42,2.52-1.43,4.22-.05.68.55,1.33,1.16,1.92,1.81,3.34,3.71,6.07,7.82,8.13,12.37.28.61.61,1.2,1.03,2.01,1.7-6.82-10.94-46.26-14.93-50.21-.24,3.13-.52,6.39-.74,9.64-.11,1.67-.24,3.35-.19,5.03.16,5.37.55,10.71,3.28,15.56.13.22.08.55.15,1.19-1.92-1.29-2.7-2.96-3.12-4.68-.66-2.71-1.24-5.47-1.43-8.24-.25-3.5-.12-7.03-.07-10.55.11-8.45-2.14-16.27-6.25-23.59-.28-.5-.68-.93-1.35-1.83.48,4.75-.09,8.87-1.05,12.92-1.24,5.24-1.89,10.51-2.01,15.9-.11,4.93.76,9.53,3.18,13.83.28.49.4,1.07.6,1.6-.8-.2-1.27-.6-1.6-1.09-1.51-2.29-2.53-4.79-3.06-7.5-.81-4.13-.63-8.28-.23-12.42.56-5.81,1.34-11.59,1.12-17.45-.18-5.05-1.46-9.72-3.93-14.17-3.16-5.69-7-10.88-11.11-15.89-.25-.3-.61-.51-1.17-.96,1.64,7.26,1.36,14.16.04,21.05-1.07,5.57-2.29,11.12-3.12,16.73-1.08,7.26-.77,14.38,3.57,20.76.23.35.3.81.44,1.21-2.45-1.94-3.87-4.47-4.71-7.33-1.21-4.12-1.42-8.36-1.09-12.6.47-5.82,1.08-11.62,1.68-17.42.86-8.34.48-16.61-1.37-24.79-.8-3.55-3.33-6-5.47-8.79-.71,3.12-1.14,6.03-2.06,8.78-1.26,3.78-2.96,7.42-4.35,11.16-2.7,7.3-4.98,14.69-4.69,22.62.22,5.94.59,11.83,3.82,17.1.15.24-.01.67-.03,1.02l-.46.18c-.59-.98-1.29-1.91-1.77-2.94-2.13-4.58-2.71-9.51-2.96-14.47-.34-6.69.68-13.27,2.23-19.72,1.6-6.67,3.61-13.26,5.54-19.85.9-3.07.82-6.09.13-9.59-.29.62-.48.86-.53,1.14-.66,3.37-2.25,6.3-4.17,9.09-2.31,3.36-4.6,6.73-6.97,10.05-6.09,8.52-8.88,17.97-8.13,28.45.03.39-.18.79-.39,1.66-1.09-1.55-1.37-2.88-1.35-4.19.03-2.31.08-4.65.44-6.92,1.33-8.31,4.45-15.98,8.73-23.19,1.92-3.23,3.8-6.48,5.58-9.79.94-1.75,1.79-3.59,2.36-5.49.65-2.17.78-4.43-.32-7.14-.43,1.01-.69,1.48-.84,1.99-.93,3.05-2.67,5.61-4.85,7.89-1.71,1.79-3.48,3.53-5.12,5.39-2.16,2.46-4.31,4.94-6.28,7.55-2.38,3.15-4.29,6.56-4.68,10.62-.03.36-.36.69-.55,1.04-.18-.04-.35-.08-.53-.12.08-1.23.04-2.48.25-3.68.74-4.09,2.57-7.75,4.95-11.08,2.5-3.51,5.21-6.88,7.95-10.21,2.51-3.07,4.43-6.45,5.87-10.12.57-1.45.93-2.95-.57-4.02ZM220.89,471.8c2.04,1.14,2.1,2.81,1.43,4.46-.81,1.99-1.79,3.93-2.9,5.77-2.02,3.35-4.34,6.53-6.29,9.92-4.02,7-5.54,14.25-.6,21.43,2.8,4.07,5.85,8.02,9.19,11.66,6.34,6.9,12.34,14.07,17.95,21.55,8.98,11.96,18.27,23.66,28.14,34.91,5.82,6.64,10.76,13.9,14.5,21.94.2.43.4.88.66,1.28,1.04,1.61,1.77,1.79,4,.93-.05-.72-.17-1.5-.15-2.27.03-1.27.03-2.56.25-3.8,1.34-7.55,2.75-15.09,4.11-22.63.2-1.1.4-2.22.39-3.33-.01-1-.18-2.05-.51-2.99-3.31-9.34-6.76-18.62-9.97-27.99-1.44-4.21-2.45-8.58-3.57-12.61-1.78-.59-3.68-.72-4.83-1.72-1.96-1.7-4.21-2.54-6.52-3.38-3.95-1.45-7.41-3.76-10.67-6.34-.81-.64-1.82-1.8-1.75-2.65.16-2.07-1.11-2.77-2.43-3.71-2.27-1.61-4.53-3.27-6.66-5.06-1.74-1.47-1.66-1.65-.13-3.49-1.73-1.85-3.57-3.63-5.17-5.61-1.63-2-3.56-3.8-4.92-6.11.68-.57,1.16-.97,1.63-1.37-4.41-6.5-5.92-9.56-5.66-11.67.71-.08,1.45-.16,2.34-.27-.32-.82-.6-1.47-.84-2.13-.94-2.63-1.89-5.26-2.79-7.9-.72-2.11-.73-4.23.1-6.41.6-.12,1.23-.25,2.03-.41-.7-1.82-1.33-3.42-1.95-5.03-2.4,5.29-4.72,10.35-8.42,15.03ZM247.93,295.74c-2.46-1.96-4.57-3.52-6.52-5.27-.79-.71-1.37-1.79-1.73-2.81-.75-2.13.5-3.7,2.73-3.58,1.64.09,3.11.68,4.34,1.81.45.41.92.81,1.37,1.2,1.85-2.11,1.55-4.21.44-6.35-.18-.35-.38-.71-.59-1.04-2.21-3.43-4.45-6.83-6.62-10.28-.66-1.04-1.39-1.78-2.59-2.3-2.63-1.15-4.47-3.31-6.18-5.54-.62-.8-.92-1.81-.17-2.65.87-.97,1.88-.52,2.82.05.51.31,1.01.61,1.86,1.12-.48-2.57-.89-4.75-1.28-6.83-.83-.17-1.77-.08-2.26-.51-1.26-1.08-2.42-2.32-3.42-3.64-.39-.52-.56-1.65-.25-2.15.55-.9,1.6-.54,2.33-.03.71.49,1.31,1.15,1.91,1.79.41.44.71.98,1.22,1.69,0-3.94-.95-7.15-3.85-9.64q-1.83,3.44-4.53,4.04c-.44,2.24.27,4.41.57,6.61.18,1.35.69,2.95-.9,3.58-1.57.62-2.47-.86-3.18-1.96-1.51-2.35-2.88-4.79-4.28-7.21-1.34-2.33-2.64-4.68-4.15-7.36-.32.76-.51,1.09-.6,1.45-.62,2.38.03,4.6.96,6.75,1.93,4.49,2.78,9.15,2.55,14.03-.04.86.17,1.73.25,2.6.14,1.5.35,3,.41,4.5.1,2.63-.11,5.29.19,7.89.95,8.12,4.71,12.3,12.57,14.24,2.51.62,4.88,1.52,6.87,3.24,1.44,1.24,2.46,2.74,2.76,4.64.06.38-.17.81-.36,1.62-.46-.75-.75-1.11-.92-1.52-1.24-3.06-3.62-4.8-6.64-5.77-1.29-.41-2.63-.69-3.96-.96-3.63-.75-6.56-2.64-8.49-5.76-1.2-1.95-2.14-4.11-2.82-6.3-.64-2.03-.8-4.21-1.23-6.72-.87,3.1-3.2,5.44-1.98,8.76.31.84.13,1.92-.03,2.85-.44,2.68-.85,5.37-1.51,7.99-2.18,8.68-1.21,16.96,2.83,24.91.3.59.51,1.23.76,1.85-.15.1-.3.2-.45.3-.39-.41-.91-.76-1.13-1.25-1.2-2.6-2.62-5.15-3.4-7.89-1.74-6.11-1.63-12.28.01-18.47.88-3.3,1.28-6.73,1.84-10.11.09-.56-.11-1.17-.25-2.36-.84.97-1.37,1.47-1.75,2.06-.19.3-.09.78-.17,1.17-.72,3.65-2.93,6.34-5.63,8.68-6.55,5.67-10.83,12.73-13.08,21.06-.17.61-.35,1.25-.66,1.79-.45.77-1.29.72-1.67-.09-.2-.42-.32-.92-.32-1.38.04-2.55-.14-5.14.27-7.64.52-3.22,1.39-6.4,2.35-9.53,1.25-4.1-.22-7.52-2.28-10.86-.55-.89-1.22-.89-1.98-.32-.23,3.81-1.12,5.47-4.3,7.79-1.09.8-2.28,1.48-3.45,2.17-1.17.69-2.4,1.27-3.57,1.97-6.21,3.71-11.34,8.33-13.16,15.73-.09.35-.53.61-.8.92-.37-.92-.39-1.69-.23-2.43.64-2.94,1.88-5.59,3.8-7.92,3-3.64,6.71-6.37,10.79-8.64,1.68-.93,3.42-1.78,4.97-2.88,1.28-.91,2.43-2.07,3.44-3.29.82-.99,1.2-2.23.5-3.58-.38,0-.7-.05-1,0-.7.13-1.39.34-2.1.47-.86.15-1.73.39-2.59.36-5.08-.22-9.23-3.99-9.99-9.03-.21-1.4-.37-2.82-.56-4.27-1.33-.2-2.5-.5-3.68-.52-1.65-.02-3.44-.2-4.94.34-2.84,1.02-5.63,2.31-8.23,3.84-3.6,2.12-5.68,5.36-5.69,9.66,0,1.83.13,3.67.39,5.49.19,1.35.11,2.47-.84,3.56-.48.56-.61,1.43-.89,2.15.62-.05.84-.27,1.08-.47,1.42-1.13,2.39-1.34,3.23-.72.78.58,1.09,1.98.52,3.33-.46,1.09-1.17,2.07-1.89,3.31,1.55,1.42-.51,3.08.07,5.09.35-.58.51-.92.75-1.2,1.02-1.22,1.96-2.53,3.11-3.61.92-.86,2.1-1.63,3.47-.86,1.23.68,1.3,1.93,1.26,3.16-.1,2.46-.85,4.7-2.41,6.64-.34.42-.85.92-.83,1.37.13,2.81.57,5.55,2.94,7.61.63-1.09,1.15-2.16,1.83-3.11.7-.98,1.75-1.38,2.96-1.2,1.28.2,1.89,1.13,2.23,2.25.54,1.76.26,3.48-.47,5.14-.34.78-.71,1.56-1.15,2.51,1.19.68,2.26,1.28,3.5,1.99.26-1.05.42-1.82.63-2.58.64-2.34,1.57-4.55,3.33-6.28,1.98-1.94,3.89-1.54,4.77,1.05.98,2.88,1.16,5.79-.34,8.61-.24.45-.4.95-.59,1.42,1.4-.52,2.47-1.31,3.5-2.15,2.23-1.82,4.37-3.97,7.4-4.15,3.38-.21,6.81-.76,10.27.48,0-.66-.04-1.21,0-1.75.16-1.84.46-3.66,1.58-5.21,1.33-1.84,2.93-1.8,4.24.07.93,1.32,1.02,2.83.93,4.37-.06,1.09-.15,2.18-.19,2.83,1.47,1.12,2.62,1.95,3.71,2.84,1.74,1.41,3.36,2.98,5.19,4.25,2.09,1.45,4.29.96,5.9-.99.55-.67,1.13-1.37,1.82-1.88,1.15-.86,2.49-1.23,3.82-.47,2.26,1.31,3.95.42,5.52-1.23,2.53-2.67,4.08-5.88,5.32-9.38-2.09-.94-3.52-2.49-4.42-4.51-1-2.24-1.06-4.52.15-6.69,1.31-2.35,3.72-2.71,5.54-.73.77.84,1.21,2.03,1.6,3.13.34.95.38,2,.58,3.13,2.33-1.33,4.55-2.55,6.71-3.87.59-.36,1.13-.94,1.46-1.54,1.76-3.26,2.92-6.72,3.16-10.08ZM280.16,452.57c.13-.01.26-.02.38-.03.2.92.45,1.84.59,2.77.73,4.85-.12,9.57-1.27,14.24-1.15,4.69-3.17,9.05-5.46,13.27-1.75,3.21-2.35,6.6-1.95,10.19.14,1.25.25,2.54,1.23,3.62,1.78-.75,2.64-2.34,3.55-3.79,3.5-5.56,6.57-11.35,8.67-17.6,1.79-5.33,3.12-10.75,1.93-16.45-.13-.62-.19-1.25-.28-1.87.35.41.56.84.68,1.3,1.51,5.9,1.18,11.74-.73,17.48-2.26,6.76-5.1,13.27-8.42,19.58-1.25,2.39-2.19,4.96-3.02,7.53-.5,1.54-.7,3.27.7,4.96.68-.51,1.38-.89,1.88-1.45,1.39-1.54,2.84-3.06,4.03-4.75,3.91-5.57,7.35-11.41,10.4-17.51,1.41-2.83,2.54-5.7,2.95-8.8.27-2.03.22-4.11.31-6.17.31,1.06.57,2.15.65,3.25.34,4.35-.93,8.39-2.6,12.31-2.85,6.72-6.4,13.04-10.77,18.92-1.75,2.35-3.03,5.06-4.45,7.65-.48.88-.79,1.88.07,3.19,1.41-1.12,2.8-2.04,3.98-3.18,6.9-6.72,13.21-13.88,16.44-23.26-.18,1.37-.49,2.67-1.02,3.88-3.26,7.43-7.34,14.37-12.69,20.52-1.31,1.5-2.57,3.08-3.57,4.79-1.58,2.69-1.74,5.54-.16,8.86,1.95-2.61,3.72-4.94,5.41-7.32.35-.49.52-1.2.52-1.81,0-1.42.69-2.35,1.68-3.27,2.45-2.28,4.87-4.61,7.18-7.03,1.88-1.98,3.34-4.26,3.98-6.95-2.17-1.69-2.18-1.77-.86-4.07.24-.42.52-.81.72-1.24,1.47-3.13,2.4-6.38,2.3-9.8-2.08-1.01-2.31-1.42-1.84-3.38.28-1.16.73-2.28,1.03-3.44.77-3.04.27-5.96-.73-8.84-1.17.1-2.43.51-2.34-1.02.23-3.76-1.75-6.9-2.7-10.33-.3-1.09-.83-2.12-1.29-3.27-2.95,2.77-4.01,2.57-5.75-.76-.7-1.35-1.34-2.73-2.11-4.03-1.13-1.92-2.48-3.67-4.31-5.01-2.06,2.34-3.1,2.46-5.38.34-1.34-1.24-2.51-2.69-3.62-4.14-1.55-2.03-2.9-4.22-4.48-6.23-1.27-1.61-2.76-3.03-4.25-4.64-.45.43-.66.65-.9.84-1.51,1.16-2.43,1.1-3.69-.33-.42-.48-.75-1.04-1.12-1.55-1.28-1.74-2.47-3.55-3.86-5.2-2.47-2.93-5.09-5.71-8.21-8.23-1.59,1.82-3.18,1.23-4.76.17-.93-.62-1.83-1.29-2.77-1.9-2.34-1.51-4.75-2.89-7.61-3.73-.08,2.26-.07,4.27,1.27,6.06.96,1.28,1.8,2.64,2.7,3.96,5.35,7.86,10.97,15.55,14.88,24.29.16.36.32.75.58,1.05.33.37.75.65,1.24,1.07.89-1.59,1.02-3.09,1.12-4.59.34-5.53-.58-10.83-2.9-15.88-.64-1.4-1.25-2.8-1.88-4.21.62.23.91.61,1.16,1.01,3.75,6.2,5.41,12.93,5.14,20.15-.06,1.52-.12,3.04-.15,4.55-.04,2.64.94,5.02,2,7.34.78,1.71,1.72,1.71,2.77.14,1.42-2.13,1.86-4.56,2.05-7.06.07-.95-.05-1.99.27-2.85.85-2.27.71-4.54.38-6.85-.08-.55-.07-1.11-.1-1.66,1.03,3.03,1.52,6.09.97,9.22-.69,3.93-1.42,7.86-2.2,11.78-.68,3.42-.91,6.82.26,10.18.35,1,.93,1.92,1.56,3.2,8.06-8.41,9.84-18.01,7.68-28.68,1.86,4.43,2.4,9.03,1.38,13.64-.75,3.41-2.04,6.72-3.29,9.99-1.66,4.36-2.25,8.81-1.71,13.41.19,1.65.62,3.25,1.98,4.81.9-.8,1.88-1.4,2.5-2.26,1.21-1.68,2.38-3.42,3.27-5.28,2.9-6.1,4.93-12.47,5.12-19.29.04-1.5-.21-3-.33-4.5ZM171.24,447.96c-.3-1.07-.41-1.59-.58-2.09-.66-1.88-1.49-3.72-1.99-5.64-1.09-4.19-3.21-7.76-5.9-11.12-9.28-11.58-15.33-24.64-17.72-39.34-.45-2.78-1.02-5.57-.54-8.43.19.36.25.74.3,1.12,1.23,9.15,3.37,18.06,7.2,26.51,2.3,5.07,5.53,9.53,9.25,13.64.65.72,1.55,1.22,2.34,1.82.14-.1.28-.2.42-.3-.67-2.68-1.13-5.43-2.05-8.03-2.16-6.11-2.84-12.44-3.32-18.83-.6-8-.53-15.98.98-23.89.05-.27-.03-.57-.04-.65-1.91.49-3.73,1.22-5.59,1.38-3.57.31-7.18.62-10.72-.39-.38-.11-.79-.17-1.18-.18-1.33-.05-1.98.37-2.1,1.72-.16,1.74-.17,3.51-.14,5.26.08,4.4.26,8.79.31,13.19.03,2.47-.53,3.07-2.99,3.46-1.02.16-2.07.15-3.11.26-.69.07-1.36.22-2.38.4.23,2.78.37,5.4.67,7.99.7,6,2.14,11.79,5.26,17.06.53.89.92,1.86,1.35,2.81.82,1.79.6,3.46-.74,4.88-1.1,1.17-1.53,2.57-1.8,4.09-.46,2.61-.09,5.07.99,7.48,3.44,7.71,8.27,14.38,14.58,20,1.07.95,2.29,1.88,2.98,3.09,1.34,2.36,3.33,3.83,5.69,4.89,6.82,3.07,13.67,6.09,20.58,9.16-.19-.55-.39-1.2-.65-1.83-.75-1.85-1.45-3.73-2.32-5.52-.58-1.2-1.26-2.42-2.15-3.39-3.12-3.4-7.07-5.7-11-8.02-3.72-2.19-7.45-4.37-11.12-6.62-3.7-2.28-6.95-5.12-9.72-8.48-2.15-2.61-3.9-5.47-5.05-8.66-.27-.74-.8-1.54-.19-2.67,2.39,6.97,6.76,11.9,12.78,15.74,6.9,4.4,14.25,7.9,21.39,11.82.49.27,1.08.35,1.76.55-1-4.15-2.68-7.63-5.45-10.55-1.27-1.33-2.43-2.76-3.76-4.03-4.22-4.03-8.41-8.1-12.76-11.99-7.1-6.33-11.84-14.19-15.27-22.93-.61-1.55-1.01-3.2-1.36-4.83-.2-.94-.36-1.98.33-3.17.44,2.07.62,3.89,1.22,5.56,3.42,9.58,8.73,17.93,16.45,24.65,1.44,1.26,2.98,2.41,4.51,3.56,3.25,2.44,6.54,4.85,9.79,7.29.75.56,1.44,1.22,2.58,2.21ZM206.74,228.2c1.37,1.33,2.66,2.48,3.82,3.75.69.76,1.15,1.73,1.78,2.56,1.41,1.85,3.12,2.13,5.52.96,1.98-.96,2.98-2.7,2.13-4.73-1.57-3.75-3.4-7.39-5.25-11.01-.94-1.84-2.19-3.51-3.27-5.29-.78-1.3-1.46-2.66-2.26-3.95-2.27-3.62-5.77-5.91-9.08-8.43-1.83-1.4-3.59-2.93-5.22-4.56-1.07-1.06-1.84-2.41-2.77-3.61-1.84-2.34-4.2-3.71-7.23-3.58-2.14.09-4.33.16-6.41.63-11.68,2.61-18.98,9.74-21.49,21.5-1.12,5.26-1.29,10.64-1.15,16,.08,3.03,1.31,5.8,3.63,7.86,2.54,2.27,5.51,3.1,8.89,2.16,2.69-.75,4.95-2.19,6.96-4.08,1.13-1.06,2.33-2.06,3.95-2.02,3.84.09,5.34-2.75,7.53-5.72-1.63,0-2.78-.21-3.8.05-1.84.47-3.61,1.2-5.39,1.87-2.01.76-3.96,1.72-6,2.36-2.08.65-4.02.02-5.44-1.63-3.42-3.96-4.35-8.61-3.42-13.68.08-.41.53-.76.81-1.13.39,1.35.38,2.54.39,3.72.02,3.03.79,5.85,2.41,8.42,1.66,2.65,3.1,3.22,6.05,2.23,1.73-.58,3.43-1.32,5.07-2.13,2.53-1.25,5.15-1.66,7.92-1.25.49.07.98.16,1.59.26-1.1-2.28-2.24-4.3-3.09-6.44-2.82-7.07-3.65-14.37-2.23-21.88.15-.8.12-1.72,1.37-2.28,0,1.15.03,2.06,0,2.97-.09,2.23-.39,4.47-.3,6.7.28,7.16,2.15,13.86,6.16,19.89.58.87,1.21,1.25,2.29,1.4,1.64.22,3.23.8,4.82,1.27,2.93.88,5.83.74,8.62-.39.89-.36,1.67-1.26,2.22-2.09.73-1.12,1.17-2.44,1.78-3.64.22-.42.58-.78.97-1.29.97,2.6.28,4.39-2.87,8.22ZM369.47,558.08c-.58-1.19-.88-1.9-1.26-2.56-1.37-2.44-2.78-4.85-4.15-7.3-5.22-9.35-10.39-18.73-15.67-28.04-2.68-4.72-5.5-9.38-8.41-13.97-2.61-4.11-5.3-8.18-8.21-12.08-1.66-2.22-3.81-4.07-5.78-6.07-1.31-1.32-3-1.72-4.78-1.94-1.03-.13-1.75.15-2.04,1.17-.72,2.53-1.56,5.03-2.05,7.61-.63,3.29-.93,6.65-1.44,9.96-.65,4.18-1.52,8.34-2.01,12.54-.72,6.11-1.35,12.23-2.72,18.25-.09.41-.01.86-.01,1.45.58-.22.95-.36,1.31-.51,4.22-1.76,8.49-2.12,12.84-.5,1.12.42,2.24.85,3.32,1.37,11.04,5.25,22.09,10.48,32.73,16.53,2.53,1.44,5.23,2.57,8.34,4.08ZM424.26,286.32c-2.39,5.74-7.01,8.33-12.1,10.34-.74.29-1.5.56-2.22.91-7.37,3.55-8.88,13.33-2.9,18.91,1.05.98,2.23,1.82,3.39,2.66,5.99,4.33,7.8,11.15,4.63,17.83-1.45,3.06-3.69,5.42-6.85,6.75-.86.36-1.86.93-3.09,0,1.43-.74,2.76-1.24,3.88-2.04,1.22-.88,2.32-1.96,3.3-3.1.89-1.03,1.73-2.19,1.7-3.82-.47.11-.7.15-.92.23-4.54,1.58-8.64,1.2-11.96-2.68-.31-.36-.66-.7-1.05-.98-2.36-1.71-5.93-1.12-7,1.41-1.98,4.69-3.13,9.48.3,14.1.9,1.22,1.27,2.56,1.1,4.06-.14,1.23-.03,2.43.82,3.4.97,1.11,1.07,2.39,1.1,3.79.05,2.46.17,4.94.53,7.38.19,1.31,1.03,2.52,1.35,3.83.31,1.25.32,2.57.48,3.98,1.66-.62,2.32-1.8,2.36-3.35.03-1.2.04-2.41-.14-3.59-.65-4.32.53-8.22,2.56-11.96.4-.73.78-1.64.72-2.43-.09-1.14.38-1.84,1.16-2.45,2.8-2.24,5.53-4.61,8.46-6.67,6.4-4.51,9.37-10.56,8.47-18.35-.38-3.25-1.02-6.47-1.66-9.68-.9-4.49-1.44-9-.95-13.58.36-3.43,1.59-6.51,3.85-9.13.25-.29.7-.41,1.05-.6.14.11.28.23.41.34-.44.79-.85,1.6-1.32,2.37-1.68,2.73-2.46,5.73-2.53,8.89-.04,2.07,0,4.17.3,6.22.68,4.66,1.57,9.29,2.33,13.94.83,5.09-.1,9.86-2.66,14.32-.24.43-.39.91-.64,1.49,1.45-.05,2.31-.51,3.13-1.41,1.47-1.62,3.26-1.45,4.3.43.72,1.3,1.75,1.55,2.98,1.5,1.69-.06,2.96-.9,4.09-2.18,6.37-7.21,8.39-15.61,7.01-24.99-.51-3.47-1.76-6.62-3.72-9.51-2.58-3.8-5.64-7.15-9.14-10.11q-3.3-2.8-4.91-6.46ZM208.63,232.81c-.42.13-.81.21-1.17.37-3.29,1.46-5.08,4.2-6.41,7.4-.57,1.37-1.25,2.85-2.32,3.8-1.37,1.22-2.01,2.49-2.19,4.28-.24,2.44-1.27,4.62-3.03,6.37-1.28,1.27-2.59,1.4-3.84.33-1.62-1.39-2.18-3.25-2.28-5.34-.09-1.86,1.07-2.71,2.45-3.48.09-.05.09-.26.2-.61-3.32-.59-5.37-2.55-5.8-5.83-3.78-1.76-7.32-1.22-10.71.62-.88.48-1.62,1.26-2.31,2-1.29,1.39-2.48,2.87-3.74,4.3-1.11,1.25-2.42,2.36-3.34,3.74-2.65,3.95-2.55,9.03,0,12.6,1.38,1.94,3.22,3.33,5.23,4.5,1.77,1.02,2.57,2.52,2.73,4.49.11,1.27.19,2.56.46,3.8,1.01,4.66,5.84,7.51,10.42,6.32,1.29-.34,2.67-.39,4.02-.43,1.93-.05,3.57-.68,4.98-2.01,3.05-2.88,4.09-6.41,3.39-10.47-.39-2.28-.97-4.53-1.44-6.8-.39-1.91-.49-3.82.5-5.6,1.02-1.84,2.68-2.44,4.4-1.29,1.14.76,2.19,1.9,2.84,3.1,1.56,2.86,1.96,6.07,2.06,9.28.1,2.95.95,5.66,2.22,8.26.56,1.15,1.14,2.34,2.72,2.35,1.74.02,3.14-.59,3.94-2.2.46-.93.84-1.9,1.26-2.84,1.99-4.52,1.94-9.33,2.04-14.13.08-3.89-.5-7.65-2.02-11.23-1.46-3.45-2.51-6.93-1.04-10.29-1.51-1.89-2.79-3.51-4.25-5.34ZM362.48,592.38c1.95.07,2.45-.1,3.17-1.29.49-.81.94-1.69,1.24-2.59,1.18-3.51,3.57-5.98,6.57-7.99.58-.39,1.32-.84,1.52-1.42.39-1.14,1.21-1.41,2.17-1.59,2.82-.55,5.62-1.26,8.47-1.58,6.68-.77,11.27-4.19,13.69-10.43.98-2.53,1.63-5.18,2.58-7.72,1.11-2.99,2.2-6,3.61-8.85,1.45-2.91,3.68-5.22,6.77-6.53.46-.2,1-.22,1.5-.32-.25.66-.62,1.08-1.07,1.33-3.37,1.87-5.59,4.75-7.09,8.19-.99,2.26-1.74,4.63-2.55,6.97-.81,2.34-1.54,4.7-2.35,7.04-1.33,3.83-3.74,6.84-7.12,9.07-.41.27-.76.63-1.6,1.34,1.33,0,2.1.12,2.81-.02,2.25-.47,3.03-.09,3.28,2.08.12,1.04.62,1.59,1.42,2.03,1.19.65,2.44.74,3.7.23,4.52-1.81,8.61-4.22,11.45-8.34,3.86-5.59,6.13-11.61,4.56-18.51-.69-3.03-1.61-6.01-2.64-8.94-.69-1.97-1.6-3.83-.74-6.3-.8.45-1.28.69-1.73.98-2,1.28-4.2,1.98-6.57,1.98-1.99,0-4-.09-5.97-.32-7.43-.84-12.95,6.04-10.44,13.09.43,1.2,1.06,2.32,1.59,3.48,2.96,6.49.07,13.57-6.59,16.16-1.91.74-3.87,1-5.88.59-.42-.08-.77-.48-1.5-.96,6.09-.02,8.47-.82,10.05-3.23-.24-.06-.47-.13-.7-.17-3.91-.76-6.82-2.65-7.7-6.83-.05-.23-.12-.47-.21-.69-1.13-2.7-4.29-3.61-6.48-1.68-3.02,2.66-5.38,5.74-4.76,10.15.19,1.32-.12,2.49-.76,3.67-.43.8-.72,1.81-.66,2.7.07,1.27-.26,2.3-.78,3.42-.98,2.08-2.01,4.19-2.55,6.4-.44,1.83-.43,3.76-1.72,5.4ZM419.98,407.89c.34-.75.58-1.25.79-1.76,2.54-6.02,2.39-12.33,2.01-18.66-.06-.95-.24-1.9-.45-2.83-.82-3.62-3.06-6.25-5.89-8.49-2-1.59-4.05-3.13-5.9-4.89-4.77-4.54-5.11-13.57-2.9-18.17.31-.64.65-1.35,1.18-1.79,1.11-.92,1.06-1.98.76-3.52-1.21,1.03-2.25,1.86-3.21,2.79-.29.28-.34.82-.48,1.25-.35,1.12-.51,2.32-1.04,3.34-1.77,3.4-3,6.87-2.44,10.79.15,1.02.07,2.08.12,3.11.18,3.13-1.92,5.56-5.52,5.33-.07-.53-.33-1.18-.18-1.69.77-2.52-.68-4.4-1.57-6.63-.3.36-.49.51-.58.7-2.16,4.64-5.3,8.52-9.16,11.88-2.01,1.75-3.5,3.95-4.5,6.44-.74,1.85-1.33,3.76-1.01,5.82,2.61-.6,3.7-.19,4.08,1.84.53,2.81.41,5.54-2.26,7.49.83,1.74,2.09,3.04,3.74,3.95,3.15,1.73,6.32,3.43,9.49,5.12.51.27,1.08.44,1.71.7,0-.55-.02-.86,0-1.17.13-1.81.99-3.22,2.19-3.34,1.57-.15,2.52.87,3.22,2.09.94,1.62,1.5,3.35,1.28,5.27-.03.22.06.45.11.76.55.24,1.1.48,1.72.76,0-1.27-.16-2.41.04-3.48.33-1.8,1.93-2.29,3.17-.97.69.73,1.27,1.69,1.54,2.65.44,1.58.59,3.24.9,5.06.58.17,1.3.39,2.3.69-.39-.95-.77-1.57-.9-2.24-.16-.84-.3-1.76-.15-2.59.27-1.42,1.36-1.79,2.49-.89.71.57,1.28,1.32,1.92,2,.72-1.08.51-1.82-.26-2.81-1.41-1.82-2.71-3.79-3-6.18-.2-1.6.57-2.89,1.8-3.3,1.02-.34,2.04.12,2.91,1.57.69,1.15,1.17,2.42,1.91,4ZM298.47,595.54c-.15-.02-.31-.04-.46-.06-1.13,4.56-2.74,9.01-2.93,13.77-.04,1.08-.06,2.38.47,3.24,1.66,2.67,1.63,5.41,1.08,8.32-.96,5.05-1.34,10.2-.87,15.26,1.32,13.99,2.81,27.98,4.64,41.92,1.07,8.14,2.88,16.19,4.41,24.27.29,1.5.72,3.01,1.76,4.57.38-.82.63-1.31.84-1.81,3.16-7.33,4.05-15.15,4.3-22.96.47-14.56-.54-29.08-3.34-43.4-1.94-9.95-4.05-19.87-6.26-29.77-1-4.5-2.43-8.9-3.66-13.34ZM269.44,498.3c-.65-3.37-1.73-6.27-4.42-8.21-2.26-1.63-4.62-3.16-7.06-4.5-7.12-3.89-13.9-8.2-19.5-14.18-2.36-2.53-4.62-5.09-5.6-8.51-.88.34-1.67.65-2.81,1.09.09,1.14-.03,2.44.34,3.59,1.03,3.19,2.27,6.31,3.43,9.45.25.67.62,1.31.8,2,.31,1.16,0,1.55-1.23,1.75-.36.06-.73.04-1.28.07,1.54,3.1,2.92,6.06,5.07,8.58.44.52.99,1.21.95,1.79-.03.52-.81.99-1.4,1.64,2.75,3,5.55,6.05,8.35,9.11,1.63,1.78,1.64,2,.36,4.16,1.89,1.39,3.8,2.81,5.73,4.2.91.65,1.96,1.13,2.77,1.88.61.56,1.38,1.49,1.29,2.14-.28,2.02.99,2.88,2.29,3.82,3.45,2.51,7.1,4.59,11.18,5.91,1.65.53,3.29,1.13,4.52,2.57.84.98,2.11,1.3,3.47,1.12-.5-3.3-3.12-6.78-6.16-8.15-8.86-4.01-16.38-9.88-23.21-16.71-.64-.64-1.18-1.38-1.76-2.08.45-.13.64-.05.79.09,5.34,5.1,11.26,9.46,17.49,13.39,1.79,1.12,3.9,1.79,5.93,2.44,1.2.38,2.95,1.17,3.62-.45.6-1.46-.93-2.4-2.07-3.13-4.72-3.01-9.38-6.1-14.22-8.9-5.02-2.91-9.61-6.35-13.65-10.48-1.71-1.75-3.06-3.87-4.46-5.9-.44-.64-.53-1.53-.78-2.3.16-.06.32-.13.47-.19.33.51.62,1.05.99,1.53,1.59,2.09,3.02,4.34,4.84,6.21,6.5,6.69,14.62,11.06,22.76,15.35.84.44,1.77.74,2.69,1,.57.16,1.2.14,1.9.2.27-2.34-.46-4.16-1.97-5.57-2.21-2.07-4.44-4.17-6.9-5.93-3.64-2.6-7.45-4.95-11.25-7.32-4.08-2.54-8.14-5.09-11.64-8.41-.76-.72-1.47-1.51-2.21-2.26,1.29.5,2.24,1.31,3.2,2.12,5.59,4.73,12.15,7.96,18.34,11.76,1.97,1.21,4.02,2.31,6.08,3.36,1.1.56,2.22,1.27,3.92.84ZM231.42,433.11c2.41,1.02,2.5,1.11,2.11,3.98-.65,4.83-1.23,9.7-2.93,14.3-.89,2.4-1.26,4.55.44,6.71.38.48.43,1.21.75,1.75.34.57.84,1.05,1.24,1.58.27.36.59.72.73,1.14.96,2.79,2.76,5,4.69,7.17,6.41,7.18,14.54,11.93,22.95,16.27.84.43,1.79.73,2.72.89,1.64.28,2.23-.46,1.67-2.03-1.34-3.8-3.67-6.95-6.86-9.33-2.23-1.67-4.67-3.08-7.11-4.42-4.16-2.27-8.08-4.85-11.63-7.99-2.61-2.31-4.72-4.99-6.21-8.14-.32-.68-.56-1.39-.84-2.09,2.84,5.45,7.13,9.45,12.03,12.92,4.91,3.48,13.61,7.61,15.82,7.44-.08-.55-.07-1.12-.26-1.62-1.88-4.88-4.5-9.19-9.15-11.95-1.44-.86-2.88-1.72-4.31-2.6-3.36-2.05-6.47-4.42-9-7.48-.3-.37-.51-.82-.76-1.23.14-.11.27-.21.41-.32.34.45.64.93,1.03,1.33,3.46,3.64,7.58,6.35,12.12,8.45,1.06.49,2.13,1.12,3.71.56-.09-.87.03-1.87-.3-2.67-.8-1.9-1.71-3.78-2.78-5.55-2.8-4.64-7.02-7.79-11.41-10.78-1.97-1.34-3.91-2.82-5.53-4.54-1.09-1.16-1.63-2.86-2.33-4.36-.12-.27.2-.75.32-1.13,1.21,3.25,3.23,5.7,6,7.44,2.67,1.68,4.97,4.14,8.54,4.68-.23-2.68-.95-4.86-2.25-6.8-3.68-5.52-7.41-11-11.14-16.49-.26-.39-.68-.67-.96-.93-.51,5.36-1,10.58-1.51,15.87ZM359.63,630.02c1.13-.32,1.06-1.02.91-1.89-.34-1.98-.51-3.98.22-5.91.4-1.06,1.23-1.75,2.38-1.67,1.29.08,1.67,1.15,1.77,2.22.1,1.16.02,2.33.02,3.48.04,0,.23,0,.34-.08.38-.28.74-.6,1.11-.9,3.63-2.98,5.61-7.1,7.75-11.13,2.27-4.27,2.44-8.51.27-12.86-.75-1.5-1.45-3.04-2-4.62-1.78-5.09.15-11.83,4.32-15.25.61-.5,1.31-.99,2.05-1.2,1.07-.31,1.56-.9,1.68-2.15-1.5.29-2.95.16-4.06,1.29-.82.83-1.59,1.74-2.53,2.43-2.48,1.84-4.66,3.87-5.74,6.88-.4,1.12-.96,2.22-1.64,3.18-1.43,2.02-3.52,2.22-5.69.53,1.53-1.79,2.25-3.88,1.85-6.52-.6.39-1.06.66-1.49.98-2.81,2.08-5.97,3.35-9.31,4.26-1.61.44-3.21,1.01-4.69,1.77-2.31,1.18-4.19,2.86-5.32,5.29,2.63,1.15,3.01,2.29,1.62,4.81-.87,1.58-2.05,2.78-4.19,3.03,1.04,5.3,4.55,8.87,7.3,13.13.35-.5.55-.74.7-1,.61-1.05,1.44-1.75,2.72-1.53.99.17,1.74,1.3,1.65,2.87-.08,1.33-.35,2.69-.83,3.93-.39,1-.38,1.56.57,1.95.54-.87.92-1.77,1.55-2.45.87-.94,2.04-.68,2.44.52.25.73.37,1.6.23,2.35-.28,1.45-.79,2.86-1.29,4.58.27.23.75.64,1.08.92.56-1.35.9-2.59,1.56-3.62.53-.83,1.45-.67,1.92.22.35.67.51,1.44.76,2.2ZM335.07,123.25c.15-.02.3-.03.45-.05.32-1.28.64-2.56,1.01-4.06-1.94-.13-3.03-1.15-3.5-2.69-.18-.6-.08-1.56.31-1.96.37-.39,1.28-.36,1.94-.32.41.02.81.4,1.36.7-.04-2.15-.1-4.1-1.61-6.01-.81,1.03-1.62,1.82-2.14,2.76-2.03,3.68-7.43,4.65-10.93.45-.87-1.04-1.68-2.14-2.39-3.3-2.88-4.68-7.33-6.5-12.47-6.05-7.19.63-10.99,4.07-10.53,11.19.02.32.01.64.05.96.44,3.79.97,7.59-.53,11.57,5.22-.66,9.54,1.66,13.93,3.04.69-.59,1.19-1.12,1.78-1.5,1.1-.71,2.27-.68,3.4-.04,2.19,1.23,3.39,3.8,2.96,6.3-.31,1.82.43,2.76,2.24,2.63,2.1-.15,4.01-.85,5.71-2.55-1.54-1.14-2.52-2.57-2.75-4.4-.12-1.01.07-2.08,1.07-2.44.73-.26,1.73-.17,2.46.12.92.37,1.68,1.12,2.54,1.73.82-.67,1.55-1.26,2.36-1.92-.3-.41-.54-.71-.74-1.03-.85-1.36-1.17-2.86-.6-4.35.25-.65.96-1.43,1.57-1.54.61-.11,1.47.42,2.01.91.49.45.69,1.22,1.02,1.85ZM294.71,161.49c1.97,5.62,3.74,10.92,5.69,16.14,1.22,3.25,3.24,6.06,5.63,8.57,3.08,3.23,6.79,5.19,11.28,5.79,2.61.34,4.74-.42,6.62-2.05,1.91-1.66,3.21-3.72,3.84-6.23.93-3.71,1.04-7.44.3-11.17-.3-1.52-.92-2.97-1.45-4.59-2.19,1.64-4.09,3.06-5.8,4.33.35,2.17.81,4.12.95,6.09.13,1.78-.38,3.5-1.63,4.88-1.17,1.29-2.65,1.79-4.34,1.41-1.66-.37-2.55-1.58-2.96-3.14-.51-1.94-.44-3.91.78-5.52,1.09-1.44,2.48-2.66,3.8-3.92.61-.58,1.37-1,1.92-1.38-.34-1.2-.7-2.11-.83-3.04-.16-1.16.13-2.3,1.23-2.91,1.07-.6,2.2-.33,3.17.34.63.44,1.14,1.04,1.76,1.62,2.07-1.58,3.36-3.64,4.4-5.71-.53-1.01-1.11-1.81-1.38-2.7-.4-1.33-.44-2.77.66-3.83,1.15-1.11,2.37-.45,3.54.12.11.05.28-.03.5-.07.17-.47.36-.97.42-1.14-.99-1.47-1.8-2.67-2.63-3.91-2.5,1.82-5.18,3.44-7.04,6.18.32.42.76.81.94,1.3.3.8.58,1.66.6,2.5.02,1.01-.53,1.85-1.56,2.18-1.05.34-1.88-.08-2.5-.94-.45-.64-.86-1.31-1.14-1.73-3.71,1.26-7.23,2.45-10.76,3.66,0,.07-.05.25,0,.37.51,1.17.79,2.33-.42,3.24-.89.67-2.31.36-3.43-.83-.8-.86-1.41-1.89-2.12-2.86-2.49-.33-5.01-.66-8.05-1.06ZM329.21,145.66c-1.74.06-3.5.05-4.8-1.12-2.58-2.34-5.1-4.77-7.47-7.32-1.91-2.06-3.7-4.33-6.31-5.42-3.38-1.41-6.86-2.65-10.41-3.53-2.97-.74-5.87.14-8.4,1.93-2.28,1.62-2.87,3.48-1.82,6.05.48,1.17,1.2,2.25,1.83,3.36.82,1.43,1.45,2.97.74,4.56-.63,1.39-.2,2.31.83,3.11.88.68,1.77,1.44,2.78,1.84,1.92.76,3.94,1.28,5.91,1.9,5.29,1.64,10.53,1.39,15.82-.15,4.02-1.17,7.78-2.79,11.3-5.2ZM340.91,445.65c.09.13.19.25.28.38,1.39-.56,2.82-1.05,4.18-1.69,5.78-2.73,11.47-5.64,16.66-9.42,5.94-4.32,11.88-8.65,17.71-13.11,4.88-3.73,9.52-7.8,15.28-10.2.07-.03.11-.12.25-.28-4.05-2.21-8.07-4.4-12.16-6.62-.77.66-1.45,1.21-2.08,1.8-2.1,1.97-4.14,4-6.29,5.9-.6.53-1.57,1.08-2.25.96-1.12-.2-.7-1.4-.76-2.23,0-.11-.16-.21-.43-.53-10.94,11.02-19.61,23.95-30.39,35.05ZM449.1,387.92c-.09-1.42-.06-2.71-.26-3.96-.32-1.99-.46-3.93-.14-5.95.21-1.31.04-2.71-.11-4.06-.27-2.29-1.34-4.05-3.59-4.98-1.98-.82-3.42-2.32-4.67-4.02-.36-.5-.75-.98-1.07-1.39-2.14.52-2.88,2.39-4.15,3.67-1.95,1.96-4.25,1.81-5.92-.4-1.12-1.49-1.39-3.16-1.2-4.99.16-1.58.18-3.18.1-4.77-.03-.55-.52-1.48-.89-1.53-1.43-.18-2.9-.07-4.54-.07,3.49,7.67,1.97,14.46-3.05,20.67.6.84,1.11,1.55,1.63,2.26,2.03,2.8,3.09,5.94,3.27,9.37.08,1.44.08,2.88.03,4.32-.06,1.47,0,2.75,1.4,3.79.76.56,1.1,1.72,1.57,2.64.5.96.93,1.96,1.39,2.94.26-1.02.21-1.93.28-2.84.09-1.08.42-2.09,1.63-2.39,1.16-.28,2.07.28,2.64,1.22.53.88.89,1.86,1.26,2.83.31.79.52,1.62.79,2.48,2.59-1.88,2.98-3.47,1.63-5.84-1.14-1.99-1.75-4.13-1.5-6.43.22-2.14,1.55-2.92,3.55-2.14,1.83.71,2.64,2.23,3.08,4.01.21.83.32,1.68.57,3.03,1.48-1.18,2.62-2.08,3.86-3.06-2.35-1.54-3.83-3.37-4.31-5.87-.2-1.06-.1-2.1.97-2.74.98-.59,1.98-.28,2.65.4,1.08,1.09,1.96,2.38,3.11,3.82ZM293.06,562.47c.3-.77.42-.97.46-1.19,1.41-8.01,2.95-16.01,4.17-24.05,1.19-7.82,1.86-15.69,1.13-23.62-.15-1.69-.4-3.38-.62-5.25-.5.31-.72.4-.88.55-2.2,2.07-4.43,4.12-6.58,6.25-.46.46-.67,1.19-.94,1.82-.59,1.37-.91,2.92-1.76,4.1-1.6,2.24-3.5,4.28-5.34,6.49,3.36,11.32,6.78,22.83,10.36,34.89ZM357.21,444.32c1.06-.35,1.58-.52,2.1-.7,6.15-2.13,11.83-5.23,17.43-8.49,6.22-3.62,12.38-7.34,18.68-10.81,3.63-2,7.48-3.59,11.23-5.35.54-.26,1.1-.47,2.08-.88-3.92-2.02-7.46-3.86-11.01-5.66-.39-.2-1.01-.35-1.34-.18-1.77.91-3.55,1.83-5.19,2.95-1.35.92-2.46,2.19-3.77,3.19-1.4,1.06-2.95,1.92-4.36,2.97-9.11,6.82-17.32,14.65-25.84,22.95ZM215.75,217.49c.44.86.62,1.19.78,1.53,1.72,3.6,3.61,7.13,5.11,10.81,1.33,3.25-.04,6.05-3.22,7.47-.7.31-1.41.58-2.41.99,4.38,4.18,5.52,10.22,9.83,14.69-.34-2.59-.74-4.72-.87-6.85-.18-2.8.4-3.35,3.14-3.55.15-.01.29-.13.43-.19.09-.13.21-.25.26-.39,1.18-3.35,1.56-3.5,5.09-2.59,1.06.27,2.22.43,3.29.29,1.89-.25,3.78-.67,5.61-1.2,1.18-.34,2.27-1.02,3.52-1.6-.37-.32-.47-.47-.61-.51-5.39-1.79-9.56-5.32-13.5-9.27-3.41-3.42-7.43-6.06-11.73-8.22-1.31-.66-2.84-.86-4.73-1.41ZM267.05,469.04q-3.46,2.95-5.4,1.05c.14,1.32.28,2.71.43,4.11-.74.23-1.22.38-2.41.75.97.68,1.64,1.01,2.12,1.51,2.06,2.15,3.85,4.51,4.82,7.36.29.86.51,1.93.24,2.73-.25.74-1.19,1.26-2.06,2.11.56.46,1.22.91,1.77,1.47,1.96,1.98,3.2,4.38,3.8,7.08.37,1.67-.28,2.39-1.97,2.42-.36,0-.71-.03-.94-.04,1.02,1.12,1.98,2.3,3.08,3.33,1.77,1.66,2.25,3.79,2.48,6.05.1,1.01-.24,1.72-1.36,1.86-.31.04-.61.16-1.13.3,1.03.77,1.83,1.3,2.55,1.92,1.08.92,1.89,2.06,1.62,3.53-.29,1.57-1.73,1.6-2.85,1.73,1.34,1.33,2.77,2.57,3.98,4.01,1.62,1.93,2.37,4.26,2.98,6.72,3.22,13.13,7.95,25.78,12.46,38.5.15.43.4.82.65,1.33.88-2.13.88-2.63.35-4.22-.84-2.5-1.7-4.99-2.42-7.52-1.49-5.22-2.63-10.56-4.41-15.67-1.79-5.15-2.72-10.54-5.01-15.57-1.59-3.49-.96-7.22,1.37-10.47.43-.59.79-1.23,1.19-1.85-1.06.32-1.8.9-2.61,1.35-1.58.86-2.67.37-2.92-1.4-.11-.75.07-1.58.3-2.33.29-.97.75-1.9,1.2-2.98-.35.07-.56.08-.75.15-2.23.77-3.19.3-3.42-2.03-.15-1.48-.08-3.06.31-4.49.64-2.35,1.61-4.61,2.58-7.28-.93,1-1.55,1.78-2.28,2.43-1.63,1.46-2.94,1.18-3.62-.87-.42-1.27-.63-2.64-.76-3.98-.32-3.15.49-6.13,1.9-9.41-1.66,1.11-2.75,2.42-4.37,2.14-3.07-5.06-2.49-10.34-1.47-15.81ZM209.84,280.77c-3.58.55-4.89-1.8-6.04-4.42-1.14-2.59-1.75-5.27-1.95-8.11-.16-2.3-.57-4.6-1.1-6.84-.27-1.12-.9-2.25-1.65-3.14-.48-.57-1.53-1.04-2.23-.93-.5.08-1.09,1.18-1.16,1.87-.13,1.24,0,2.54.21,3.79.3,1.81.8,3.59,1.13,5.4,1.02,5.77-.46,10.61-5.36,14.14-.24.17-.41.44-.61.68.35.45.66.82.94,1.21,2.38,3.45,3.51,7.14,2.2,11.32-.62,1.98-1.19,3.98-1.65,6.01-.44,1.96-.71,3.96-1.06,5.94l.5.13c.28-.63.57-1.25.84-1.88,2.6-6.12,6.24-11.5,11.31-15.87,1.09-.94,2.11-1.97,3.04-3.06,1.47-1.72,2.45-3.69,2.66-6.24ZM173.18,491.31c5.56,5.36,12.87,6.55,20.01,8.22-2.76-4.62-6.11-8.68-9.61-12.61-2.9-3.26-6.25-5.92-10.13-7.93-6.37-3.3-12.99-6.24-18.01-11.72-1.42.86-2.68,1.63-4.19,2.55,1.31,1.48,2.33,2.82,3.53,3.96,4.99,4.75,10.2,9.21,16.29,12.55,2.47,1.35,2.73,2.13,2.12,4.99ZM321.24,335.98c3.55-.6,6.57-1.38,9.64-1.58,6.69-.45,13.4-.71,20.11-.85,8.23-.17,16.46-.12,24.69-.18.78,0,1.57-.07,2.35-.11-7.61-2.13-15.22-3.94-22.84-5.65-5.72-1.29-11.53-1.82-17.38-1.36-1.7.13-3.61.47-4.99,1.38-3.87,2.52-7.51,5.38-11.58,8.36ZM290.92,147.65c-1.93,1.94-2.19,4.08-.89,6.59,1.89,3.67,5.04,5.45,9.02,5.87,2.06.22,4.15.43,6.22.41,4.98-.04,9.77-1.13,13.78-4.13,3.35-2.5,6.3-5.52,9.43-8.31-5.85,3.03-12.07,5.25-18.65,5.14-6.63-.11-13.2-1.31-18.91-5.57ZM409.81,351.31c-2.56,4.46-2.52,8.98-1.24,13.51,1.5,5.32,5.43,8.31,10.39,10.15,4.41-6.07,5.36-13.77,2.28-17.89-5.26,1.22-8.71-1.25-11.42-5.76ZM428.74,354.55c1.34,2.2,1.21,4.66.85,7.13-.2,1.39-.15,2.7.64,3.91,1.14,1.74,2.46,1.88,3.87.36,1.18-1.27,2.05-2.84,3.69-3.67.35-.18.53-.76.72-1.18.49-1.08,1.06-2.15,1.39-3.28.34-1.2.62-2.48.59-3.71-.06-2.54-1.4-4.53-3.2-6.22-2.04-1.91-4.08-3.79-4.25-6.82h-5.07c-.18.51-.37,1.07-.55,1.59,4.6,3.74,4.87,6.35,1.3,11.89ZM297.6,196.73c-2.61,0-5.07-.19-7.49.03-4.65.43-8.51,2.63-11.69,5.99-1.28,1.35-1.93,2.93-1.04,4.82.85,1.79,2.38,2.28,4.17,2.17,4.91-.29,9.2-2.09,12.54-5.73,1.77-1.93,3.22-4.14,3.51-7.27ZM379.31,580.69c-3.55,2.34-5.24,5.59-6.08,9.29-1.04,4.55.61,8.38,3.65,11.7,5.48-2.39,9.27-7.8,8.65-12.29-4.28-1.09-5.75-4.33-6.22-8.69ZM369.67,262.53c5.02,7.96,7.25,16.92,11.08,25.81.57-2.03,1.09-3.53,1.4-5.07.61-2.96,1.15-5.94,1.62-8.93.29-1.85-.45-3.42-1.7-4.78-2.18-2.38-4.71-4.31-7.53-5.84-1.38-.75-2.83-1.46-4.86-1.18ZM392.17,590.39c.11,2.29-.99,4.05-2.2,5.75-.77,1.09-1.23,2.24-.93,3.58.28,1.26,1.11,1.93,2.26,1.38,2.31-1.1,4.83-1.45,7.06-3.08,3.12-2.28,3.8-5.97,2.86-8.85-.76-2.33-1.66-4.62-.6-6.95-1.35-.74-2.51-1.39-3.61-2-1.24.49-.95,1.24-.66,2.16,1.15,3.53.18,5.77-3.12,7.48-.28.15-.57.28-1.07.53ZM419.87,340.01c-2.48,1.84-4.58,3.42-6.71,4.96-1.92,1.38-2.47,2.62-1.86,4.93.81,3.08,3,4.78,5.96,5.63,1.5.43,2.9.29,3.97-.9.92-1.02,1.94-1.15,3.23-1,2.74.33,5.1-1.88,5.12-4.65.02-2.02-1.49-3.94-3.72-4.5-.26.79-.47,1.62-.79,2.4-.36.87-.67,1.82-1.24,2.54-1.57,1.96-3.89,2.24-5.99.87-2.33-1.52-3.05-3.54-2.02-5.87,2.87.23,4.66-1.4,6.22-3.85-.93-.24-1.67-.44-2.17-.57ZM191.36,254.21c2.13-1.67,3.04-3.27,3.37-6.21.21-1.91.74-3.52,2.44-4.67.68-.46,1.25-1.26,1.58-2.03.95-2.21-1.22-5.22-3.43-4.62-1.5.41-2.72.23-4.14-.19-2.5-.75-4.31.3-4.82,2.52-.53,2.28.64,3.92,3.46,4.79,1.1.34,2.18.75,2.39,2.05.21,1.31-.58,2.12-1.69,2.58-1.1.46-1.3,1.27-1.18,2.32.17,1.4.61,2.61,2.01,3.48ZM297.27,195.49c-1.01-2.11-2.2-3.06-3.62-3.57-4.65-1.66-9.25-1.54-13.6.97-2.71,1.56-4.19,5.43-3.37,8.81,5.55-5.84,12.31-7.79,20.59-6.21ZM392.56,577.52c-1.42-1.47-1.42-1.44-2.57-1.23-1.87.34-3.75.71-5.64.92-1.63.19-2.62.99-3.13,2.51-.87,2.56,0,4.68,1.68,6.58,1.03,1.16,2.27,1.8,3.82,1.24.94-.34,1.64-.11,2.44.42,1.96,1.31,3.76,1.06,5.29-.6,1.32-1.45,1.24-3.56-.39-5.53-.79.76-1.52,1.56-2.36,2.24-1.7,1.38-4.07,1.23-5.39-.27-1.62-1.84-1.56-4.27.21-5.91,2.06,1.2,4.06.84,6.04-.38ZM213.51,213.96c.21,1.3.59,1.97,1.74,1.9,4-.27,7.21,1.66,10.38,3.72,4.17,2.7,7.86,5.97,11.41,9.44,2.94,2.89,6.51,4.75,10.67,5.96-.22-.43-.28-.66-.42-.81-6.01-6.1-12.45-11.68-19.93-15.96-4.22-2.41-8.84-3.45-13.85-4.25ZM329.62,132.69c-1.56,3.5-4.51,5.33-8.51,6.19,1.56,1.95,2.97,3.5,4.88,4.52,1.41.75,2.79.44,4.07-.37.6-.38,1.14-.86,1.69-1.32.9-.75,1.86-1.07,2.93-.17-.16-3.91.13-7.83-5.07-8.85ZM204.94,515.03c.11-.12.23-.25.34-.37-4.48-5.59-9.7-10.24-16.55-12.84-2.09-.79-4.2-1.53-6.28-2.32-3.44-1.31-6.29-3.43-8.59-6.29-.43-.53-.92-1.01-1.34-1.47-1.41.66-1.03,1.37-.45,2.19,2.57,3.64,6.17,5.98,10.09,7.87,3.52,1.7,7.15,3.17,10.66,4.89,3.57,1.75,7.26,3.36,9.88,6.58.59.72,1.49,1.18,2.25,1.76ZM246.95,442.94c.64.64,1.25,1.16,1.77,1.76,3,3.46,5.8,7.05,6.71,11.71.14.7.37,1.48.19,2.12-.18.63-.83,1.13-1.35,1.78,2.86,2.04,4.77,4.86,6.39,7.92-.14-1.93-.55-3.79-.58-5.65-.02-1.88.34-3.77.54-5.68-2.52.54-3.52.11-4.43-2.31-.89-2.37-1.53-4.84-2.34-7.45-1.88.54-2.68-.84-3.39-2.36-.56-1.19-1.12-2.37-1.67-3.54-.63.58-1.14,1.05-1.84,1.7ZM190.72,234.63c1.54-1.77,2.79-3.57,3.03-6.22-1.41-.12-2.77-.06-4.03-.4-1.29-.35-1.94.16-2.56,1.11-1.35,2.1-2.84,4.05-5.25,4.9-.2,1.22-.37,2.28-.54,3.34,1.08.43,2.02.81,3.08,1.23.94-3.33,3.33-4.18,6.26-3.96ZM416.19,345.25c.19,2.12.47,2.78,1.53,3.74,2.03,1.84,4.46,1.5,5.79-.9.37-.66.62-1.51.57-2.25-.08-1.22.38-2.07,1.07-3.02.68-.93,1.09-2.09,1.43-3.21.11-.37-.37-.91-.58-1.38-.47.22-1.07.33-1.38.69-.4.46-.53,1.15-.85,1.69-1.67,2.81-3.83,4.87-7.59,4.64ZM304.12,796.01c-3.35,3.63-6.6,16.65-5.32,20.92,2.54-6.81,5.51-13.18,5.32-20.92ZM281.4,211.71c.95,1.06,2.03,1.2,3.13,1.26,4.35.21,7.95-1.29,10.72-4.72,2.05-2.56,3.66-5.3,4.13-8.69-3.46,7.73-9.64,11.38-17.98,12.16ZM386.52,578.75c-.91,2.47-.39,4.44,1.32,5.21,1.59.72,3.14-.07,4.51-2.06.45-.66,1.27-1.08,1.97-1.55,1.09-.74,2.4-1.28,2.37-2.89-.8-.66-1.42-.3-2,.17-2.5,2.01-5.19,2.66-8.16,1.12ZM295.27,123.56c-7.86,2.52-10.99,6.89-8.57,11.87.16-.35.35-.61.41-.9.8-3.51,2.87-5.95,6.21-7.26,1.64-.64,1.85-1.99,1.94-3.71ZM318.8,173.52c-1.69,1.01-2.86,2.15-3.68,3.65-.69,1.26-.79,2.59-.37,3.93.56,1.81,2.44,2.36,3.72.98.66-.71,1.09-1.76,1.29-2.73.39-1.92-.06-3.78-.95-5.83ZM199.17,230.24c-.07,1.39.04,2.52-.21,3.56-.39,1.6.13,2.65,1.39,3.53,1.09-1.22,1.97-2.48,3.11-3.42,1.19-.97,2.64-1.63,4.13-2.52-2.6-1.75-5.37-1.15-8.42-1.15ZM197.77,234.58c-.08-1.4-.17-2.88-.27-4.48-.63-.15-1.2-.29-1.67-.41-1.1,1.82-2.11,3.48-3.21,5.29,1.65-.13,3.24-.25,5.14-.4ZM180.2,234.29c-2.74-.24-3.77,2.11-5.49,3.35,4.84-.49,5.33-.79,5.49-3.35ZM334.26,147.54c.73-2.58.74-2.8.26-4.46-.83,1.25-1.65,2.49-2.54,3.84.85.23,1.52.42,2.28.62ZM322.15,350.11c1.34,1.77,2.88,1.8,4.66,1.58-1.61-1.84-2.12-2.02-4.66-1.58ZM314.86,545.31c.41,1.83,1.43,2.48,3.01,3.12-.41-1.73-1.17-2.63-3.01-3.12ZM234.3,314.54c-.15-.08-.3-.15-.45-.23-.15.36-.3.72-.45,1.08.12.06.25.11.37.17.18-.34.36-.68.53-1.02Z"/>
  <path class="cls-1" d="M368.41,356.91c0-3.03.63-4.28,1.9-4.61,1.29-.33,3.2.48,3.91,2.11.82,1.86,1.3,3.88,1.8,5.87.14.55-.07,1.27-.32,1.83-.61,1.39-1.87,1.85-3.12,1-2.47-1.68-4.05-3.98-4.16-6.2Z"/>
  <path class="cls-1" d="M373.58,370.61c-.53,1.02-.81,2.39-1.65,2.96-1.12.76-2.25-.33-3.15-1.1-1.89-1.62-2.58-4.9-1.56-7.05.52-1.11,1.73-1.29,3.08-.48,1.52.91,2.93,3.55,3.27,5.67Z"/>
  <path class="cls-1" d="M341.78,350.61c.42-.65.74-1.71,1.34-1.9.64-.2,1.69.22,2.3.71,1.35,1.09,1.84,3.51,1.07,5.03-.32.63-1.03,1.43-1.6,1.46-.6.03-1.53-.62-1.82-1.21-.58-1.19-.83-2.54-1.29-4.09Z"/>
  <path class="cls-1" d="M364.65,364.21c-.17.28-.38,1.13-.88,1.34-.5.22-1.38-.02-1.91-.35-1.3-.83-1.83-2.16-1.71-3.67.12-1.64,1.6-2.26,2.9-1.27,1.15.88,1.55,2.14,1.6,3.94Z"/>
  <path class="cls-1" d="M358.66,352.45c-1.99-1.09-3.17-2.76-3.5-4.96-.08-.54.39-1.38.87-1.7.31-.21,1.21.13,1.64.48,1.8,1.51,2.27,4.39,1,6.18Z"/>
  <path class="cls-1" d="M357.37,360.28c-.04,1.21-.67,1.91-1.68,1.89-1.04-.02-2.11-1.5-2.04-2.83.05-1,.75-1.66,1.7-1.6,1.16.07,2.06,1.2,2.02,2.53Z"/>
  <path class="cls-1" d="M396.34,617.43c-1.31-.07-1.3-1.04-1.06-1.86.2-.68.79-1.25,1.2-1.87.32.26.89.5.92.78.04.6-.2,1.22-.32,1.83-.25.38-.49.75-.74,1.13Z"/>
  <path class="cls-1" d="M186.3,305.56c-.09,3.33-.84,5.97-2.86,8.09-.44.46-1.24.92-1.8.85-.95-.13-1.07-1.15-.95-1.92.44-2.81.97-5.61,1.52-8.41.09-.44.37-.89.67-1.25.93-1.13,2.28-1.01,2.86.31.37.85.45,1.83.56,2.33Z"/>
  <path class="cls-1" d="M236.46,281.47c-.27.4-.55,1.3-1.13,1.56-.58.26-1.68.16-2.16-.25-2.11-1.81-3.4-4.18-3.8-6.94-.08-.58.32-1.57.78-1.8.59-.29,1.63-.24,2.19.11,2.53,1.58,3.71,4.05,4.12,7.32Z"/>
  <path class="cls-1" d="M157.73,295.18c0-1.95,2.26-5.39,4.04-6.12,1.22-.5,2.08-.07,2.31,1.16.44,2.34-2.34,6.6-4.67,7.15-1.14.27-1.67-.43-1.68-2.19Z"/>
  <path class="cls-1" d="M222.36,306.38c-.22,1.2-.28,2.25-.64,3.19-.18.48-.87.96-1.39,1.04-.35.05-1.01-.53-1.17-.96-.89-2.3-1.03-4.65,0-6.95.19-.42.82-.92,1.21-.9.4.02.97.58,1.12,1.02.4,1.19.61,2.44.87,3.55Z"/>
  <path class="cls-1" d="M155.43,282.58c1.07.05,1.73.94,1.32,2.03-.6,1.61-1.72,2.89-3.25,3.66-.48.24-1.39.26-1.74-.04-.45-.39-.75-1.21-.74-1.84.04-1.56,2.84-3.88,4.4-3.81Z"/>
  <path class="cls-1" d="M230.31,265.76c-.05,1.81-1.18,2.47-2.66,1.48-1.57-1.06-2.63-2.5-2.83-4.45-.08-.82.22-1.4,1.16-1.41,1.85,0,4.37,2.56,4.32,4.38Z"/>
  <path class="cls-1" d="M173.64,306.04c.29-1.62.72-2.79,2.01-3.39,1.24-.57,2.39.16,2.1,1.49-.22,1.02-.8,2.05-1.47,2.86-.33.39-1.34.51-1.88.32-.42-.15-.6-.98-.76-1.28Z"/>
  <path class="cls-1" d="M175.95,290.07c-.04,1.59-2.42,3.16-3.85,2.44-.4-.2-.78-.81-.82-1.27-.13-1.35,1.79-3.07,3.14-2.95.89.08,1.56.86,1.54,1.78Z"/>
  <path class="cls-1" d="M205.6,306.16c-.37,1.08-.56,2.04-1.03,2.83-.25.43-.97.58-1.48.85-.21-.48-.6-.96-.58-1.43.04-.86.25-1.73.51-2.55.24-.75.66-1.67,1.62-1.32.46.17.65,1.07.95,1.61Z"/>
  <path class="cls-1" d="M210.06,320.97c1.67,1.19,1.77,2.75,1.48,4.36-.15.87-1,1.1-1.63.56-1.25-1.07-1.25-3.49.14-4.92Z"/>
  <path class="cls-1" d="M203.13,246.52c5.87,3.72,9.05,17.17,5.13,23.25,0-.76-.06-1.16,0-1.54.72-3.92.34-7.79-.46-11.65-.57-2.74-2.12-4.97-3.61-7.24-.54-.83-1.03-1.69-1.54-2.53.15-.1.31-.19.46-.29Z"/>
  <path class="cls-1" d="M185.82,252.96c-1.88,3.37-3.59,6.73-4.25,10.59-.66,3.85.07,7.53,1.22,11.56-5.13-3.61-2.81-18.76,3.03-22.15Z"/>
  <path class="cls-1" d="M345.96,570.44c.47-1.09.83-2.42,1.56-3.5,1.11-1.64,2.82-1.46,3.82.28.23.4.41.89.45,1.35.18,2.03-.16,4.02-1.17,5.77-.37.64-1.34,1.24-2.06,1.26-.55.02-1.37-.8-1.65-1.43-.47-1.07-.6-2.29-.94-3.73Z"/>
  <path class="cls-1" d="M345.61,577.58c-.25,1.75-.59,3.23-1.98,4.33-.78.62-1.39.57-2.05-.13-1.85-1.96-1.42-5.96.81-7.43.71-.47,1.48-.36,1.89.3.56.91.9,1.95,1.33,2.93Z"/>
  <path class="cls-1" d="M329.7,558.8c-1.24-.77-1.34-1.83-1.03-2.85.34-1.11.81-2.26,1.5-3.18.57-.75,1.73-.19,2.19.93.83,2.05-.22,4.1-2.65,5.1Z"/>
  <path class="cls-1" d="M338.08,570.41c.05-.27,0-.85.25-1.18.41-.51,1.03-1.17,1.55-1.16.51.01,1.13.71,1.45,1.25.25.42.18,1.08.1,1.62-.18,1.29-1,2.28-1.77,2.26-.85-.02-1.6-1.23-1.59-2.79Z"/>
  <path class="cls-1" d="M341.13,561.38c-1.22-1.5-1.31-3.18-.76-4.91.14-.44.82-1.08,1.11-1.01.5.12,1.1.63,1.29,1.12.67,1.72-.02,3.66-1.64,4.8Z"/>
  <path class="cls-1" d="M334.36,565.48c.1-.73.37-1.56,1.46-1.66.89-.08,1.6.96,1.47,2.05-.12.98-.87,1.76-1.65,1.72-.88-.04-1.37-.78-1.27-2.1Z"/>
  <path class="cls-1" d="M416,389.79c.06,2.55-.41,3.61-1.51,3.9-1.22.32-2.54-.37-3.5-1.92-1.15-1.85-1.85-3.86-1.78-6.07.04-1.17.39-2.23,1.58-2.69,1.09-.42,2.16.01,2.8.8.82,1.01,1.46,2.22,1.94,3.44.37.93.37,2.01.46,2.54Z"/>
  <path class="cls-1" d="M402.41,398.59c-.07.4-.12,1.04-.3,1.64-.47,1.58-1.3,2-2.87,1.52-2.75-.83-4.28-2.75-4.42-5.52-.08-1.68.6-3,1.85-3.56,1.29-.58,3.01-.15,4.11,1.06,1.19,1.31,1.45,2.95,1.63,4.86Z"/>
  <path class="cls-1" d="M411.69,404.1c-.13.46-.21,1.11-.48,1.66-.82,1.71-2.34,2.04-3.63.64-1.65-1.79-2.68-3.97-2.71-6.45-.03-2.23,1.56-3.12,3.55-2.05,2.39,1.28,2.93,3.6,3.27,6.21Z"/>
  <path class="cls-1" d="M385.47,397.57c.12-.38.23-1.2.63-1.84.74-1.19,2.19-1.28,2.96-.13,1.14,1.72,2.13,3.6,1.96,5.74-.06.75-.6,1.74-1.22,2.08-.47.25-1.55-.19-2.11-.63-1.5-1.2-2.14-2.9-2.21-5.22Z"/>
  <path class="cls-1" d="M404.15,384.97c-.21.33-.56,1.25-1.23,1.78-.81.65-1.64-.04-2.35-.55-1.64-1.19-2.34-3-1.88-4.78.36-1.39,1.37-1.92,2.71-1.41,1.56.59,2.78,2.53,2.75,4.97Z"/>
  <path class="cls-1" d="M393.42,386.72c.03,2.22-.52,3.27-1.61,3.37-1.08.09-2.05-.81-2.45-2.52-.21-.91-.26-1.9-.12-2.82.16-.99.81-1.81,1.92-1.84,1.13-.04,1.72.79,1.98,1.76.21.76.22,1.57.27,2.05Z"/>
  <path class="cls-1" d="M422,397.12c-.22.94-.28,1.76-.6,2.45-.2.42-.82.96-1.2.92-.51-.06-1.18-.51-1.41-.97-.84-1.7-.41-3.42.35-5.01.5-1.04,1.73-1.03,2.22.02.38.83.46,1.81.64,2.59Z"/>
  <path class="cls-1" d="M404.04,372.7c2.05.3,3.1,1.78,2.46,3.37-.16.39-.57.87-.93.93-.35.06-.93-.26-1.15-.59-.72-1.08-1.11-2.27-.39-3.71Z"/>
  <path class="cls-1" d="M236.05,446.16c.27.35.53.7.8,1.04-.08.07-.16.14-.25.21-.29-.35-.58-.7-.87-1.04l.32-.21Z"/>
  <path class="cls-1" d="M356.22,609.72c-.16,1.54-.6,3.06-1.79,4.24-.86.86-1.6.84-2.51.06-1.65-1.41-2.15-3.29-1.43-5.4.58-1.7,1.76-2.65,3.08-2.47,1.49.2,2.66,1.75,2.65,3.57Z"/>
  <path class="cls-1" d="M364.26,609.96c.32-1.07.66-2.53,1.19-3.92.35-.92,1.08-1.63,2.21-1.5,1.09.13,1.59.98,1.94,1.9.67,1.76-.51,5.95-1.96,7.07-.94.73-2.39.27-2.89-1-.26-.65-.27-1.39-.48-2.55Z"/>
  <path class="cls-1" d="M355.82,617.95c.18-.73.31-1.95.77-3.01.77-1.78,2.39-1.88,3.5-.32,1.2,1.66.85,5.26-.65,6.67-1.38,1.3-2.95.87-3.41-.98-.15-.61-.12-1.26-.22-2.35Z"/>
  <path class="cls-1" d="M344.07,611.5c-1.93-1.79-2.2-4.8-.48-6.56.48-.49,1.4-.83,2.07-.76.91.1,1.14,1.04,1.07,1.88-.11,1.19-.23,2.39-.51,3.54-.26,1.07-.96,1.81-2.15,1.89Z"/>
  <path class="cls-1" d="M362.7,601.01c0,1.71-1.04,3.24-2.21,3.24-1.06,0-2.16-1.76-2.08-3.34.07-1.46,1.24-3.01,2.26-2.99,1.06.01,2.03,1.5,2.03,3.1Z"/>
  <path class="cls-1" d="M354.26,598.67c-.7,1.2-1.19,2.38-1.99,3.31-.75.88-1.77.53-2.22-.56-.52-1.27.23-3.79,1.44-4.42.49-.25,1.33-.36,1.73-.1.49.32.67,1.1,1.04,1.77Z"/>
  <path class="cls-1" d="M371.23,617.79c-.67,1.05-1.23,2.1-1.98,2.99-.27.32-1.2.55-1.43.36-.39-.34-.78-1.18-.62-1.57.45-1.07,1.12-2.07,1.86-2.97.25-.31,1.08-.48,1.43-.3.36.19.46.88.73,1.5Z"/>
  <path class="cls-1" d="M366.77,594.31c1.81,1.39,1.65,2.61-.49,3.76-1.11-1.59-1.04-2.13.49-3.76Z"/>
  <path class="cls-1" d="M314.03,120.81c.24-.38.51-1.26,1.08-1.58.44-.25,1.42,0,1.9.37,1.12.88,2.13,1.92,3.1,2.97.42.45.69,1.07.91,1.66.37.99.22,2.06-.71,2.53-.68.35-1.78.44-2.44.13-2.35-1.1-3.52-3.13-3.83-6.08Z"/>
  <path class="cls-1" d="M327.76,120.08c.06,2.71-1.41,3.68-3.15,2.76-1.5-.8-2.35-2.12-2.7-3.75-.25-1.2.28-2.23,1.35-2.81,1.13-.62,2.09-.15,2.72.72.81,1.13,1.4,2.42,1.77,3.08Z"/>
  <path class="cls-1" d="M304.13,119.82c-.06-1.91.95-2.67,2.46-2.13,1.67.6,3.42,3.09,3.41,4.85,0,1.49-1.29,2.41-2.62,1.72-1.89-.98-2.85-2.69-3.25-4.44Z"/>
  <path class="cls-1" d="M315.04,109.69c.65.42,1.19.59,1.39.95.57,1.02,1.19,2.08,1.41,3.2.12.59-.39,1.53-.9,1.96-.73.6-1.5.03-2.04-.59-.99-1.13-1.45-2.48-1.05-3.94.16-.58.76-1.03,1.19-1.57Z"/>
  <path class="cls-1" d="M308.52,111.58c.4.62.85,1.08.98,1.62.1.4-.23.89-.37,1.35-.39-.17-.93-.24-1.14-.54-.51-.73-.79-1.55.53-2.43Z"/>
  <path class="cls-1" d="M320.18,113.02c1.22.46,1.35,1.21.99,2.33-1.18-.47-1.33-1.21-.99-2.33Z"/>
  <path class="cls-1" d="M305.54,171.54c.01-1.28,0-2.35,1.26-2.77.98-.33,2.25.09,2.81,1.23.54,1.11.96,2.37,1,3.59.07,1.9-1.46,2.6-3.11,1.55-1.39-.89-1.97-2.22-1.97-3.6Z"/>
  <path class="cls-1" d="M316.16,166.4c.06,1.6-.89,2.37-2.29,2.02-1.82-.46-3.12-3.12-2.35-4.8.47-1.03,1.37-1.36,2.34-.76,1.35.85,2.08,2.13,2.3,3.54Z"/>
  <path class="cls-1" d="M429.5,394.65c-2.68-1.12-4.71-4.39-4.4-7.13.06-.54.22-1.1.47-1.59.61-1.19,1.7-1.43,2.78-.68,2.05,1.43,3.03,7.12,1.56,9.19-.08.11-.27.14-.41.21Z"/>
  <path class="cls-1" d="M438.28,371.25c0-1.53.88-2.2,2.3-1.76,2.04.63,4.22,4.54,3.71,6.63-.22.88-.82,1.1-1.62.92-1.73-.39-4.39-3.92-4.39-5.79Z"/>
  <path class="cls-1" d="M435.69,384.43c-.03.24.02.7-.16,1.01-.3.5-.69,1.17-1.16,1.29-.49.12-1.34-.16-1.66-.56-1.4-1.78-1.76-3.89-1.28-6.06.27-1.23,1.39-1.45,2.4-.55,1.39,1.25,1.82,2.91,1.87,4.87Z"/>
  <path class="cls-1" d="M429.84,377.98c-.1.73-.11,1.22-.24,1.67-.41,1.36-2.03,1.83-2.73.66-.74-1.26-1.18-2.76-1.43-4.21-.17-1,.55-1.82,1.67-1.98,1.04-.15,1.69.46,2.02,1.34.34.88.51,1.83.7,2.53Z"/>
  <path class="cls-1" d="M441.66,382.24c-.23.28-.59,1.11-1.18,1.33-.46.17-1.33-.3-1.78-.73-.6-.59-1.06-1.38-1.41-2.16-.54-1.21.23-2.2,1.56-2.14,1.54.07,2.87,1.6,2.81,3.7Z"/>
  <path class="cls-1" d="M447.96,380.95c-1.78-.22-1.97-1.37-2.19-2.41-.2-.98.02-1.86,1.18-2.3,1.63,1.29,1.03,2.94,1.01,4.71Z"/>
  <path class="cls-1" d="M434.29,373.92c-1.37-1.08-1.35-2.23-1.11-3.54,1.65,1.08,1.74,1.33,1.11,3.54Z"/>
  <path class="cls-1" d="M375.39,616.87c.49-1.21.94-2.63,1.66-3.89.26-.45,1.29-.81,1.8-.65.51.15,1.08.97,1.15,1.55.25,2.11-.26,4.1-1.55,5.81-.86,1.14-1.6,1.05-2.27-.29-.34-.68-.46-1.47-.78-2.53Z"/>
  <path class="cls-1" d="M392.15,608.58c.18-1.72.81-2.89,1.74-2.96.88-.06,1.98,1.04,2.1,2.55.1,1.23-.14,2.52-.41,3.74-.09.41-.69.88-1.14.99-.29.07-.92-.39-1.07-.75-.49-1.16-.82-2.37-1.22-3.57Z"/>
  <path class="cls-1" d="M386.47,612.99c-.33.75-.76,1.93-1.39,2.99-.21.35-1,.61-1.41.49-.41-.11-.88-.71-.96-1.16-.28-1.54.13-3.01,1.03-4.27.32-.44,1.05-.94,1.47-.85.43.1.76.85,1.04,1.37.14.26.1.62.21,1.43Z"/>
  <path class="cls-1" d="M380.48,607.59c.25-.82.39-1.71.78-2.45.38-.73,1.2-1.25,1.98-.77.5.3.95,1.09.96,1.67.01.83-.31,1.7-.66,2.48-.35.77-.83,1.66-1.96,1.27-1.02-.35-1.11-1.23-1.11-2.19Z"/>
  <path class="cls-1" d="M388.21,613.82c-.01-1.24.45-1.87,1.33-1.8.98.07,1.89,1.21,1.88,2.37,0,1.16-.81,2.23-1.68,2.23-.94,0-1.52-1.05-1.54-2.79Z"/>
  <path class="cls-1" d="M388.35,606.65c.21-.88.42-1.76.73-3.07,1.09,1.54.74,2.42-.02,3.24-.24-.06-.47-.11-.71-.17Z"/>
  <path class="cls-1" d="M390.93,352.09c.39,0,.79,0,1.18,0-.88.66-1.76,1.33-2.64,1.99.49-.66.98-1.32,1.47-1.98Z"/>
</svg>